<svg xmlns="http://www.w3.org/2000/svg" width="68.937" height="80" viewBox="0 0 68.937 80">
  <g id="Group_3669" data-name="Group 3669" transform="translate(-773.443 -271.104)">
    <path id="Path_18598" data-name="Path 18598" d="M803.952,512.657c.007.047,0,.107.025.143.081.114.176.218.264.327a6.09,6.09,0,0,1,.623.91,3.3,3.3,0,0,1,.24.524.765.765,0,0,1-.052.66c-.063.105-.116.216-.175.324q-.976,1.775-2.094,3.464c-.55.834-1.107,1.663-1.659,2.5a.885.885,0,0,0-.079.189c0,.007.017.03.03.033a.256.256,0,0,0,.1.009c1.3-.269,2.618-.484,3.928-.717,1.862-.332,3.731-.631,5.584-1.012.36-.074.722-.14,1.083-.209.069-.013.139-.021.208-.03.218-.026.327.071.317.3a2.251,2.251,0,0,1-.058.467,6.9,6.9,0,0,1-.223.7,13.747,13.747,0,0,1-1.021,2.13,5.936,5.936,0,0,1-.6.862c-.079.093-.17.177-.256.264a.544.544,0,0,1-.326.158c-.191.024-.384.042-.576.05-.894.035-1.784.112-2.674.2-.854.085-1.711.154-2.564.251-1.131.128-2.261.274-3.382.475-.776.139-1.55.289-2.32.458-.153.034-.3.076-.467.117-.082.115-.165.227-.242.342q-1.689,2.51-3.152,5.157a25.056,25.056,0,0,0-2.327,6.012c-.034.136-.062.274-.086.412a1.394,1.394,0,0,0,.691,1.472,2.237,2.237,0,0,0,.581.24,4.509,4.509,0,0,0,.828.142,12.089,12.089,0,0,0,2.931-.187,26.761,26.761,0,0,0,6.106-1.9c.432-.192.849-.415,1.273-.625a1.145,1.145,0,0,1,.55-.154.5.5,0,0,1,.4.208,1.17,1.17,0,0,1,.178.378,2.485,2.485,0,0,1,.078.99,8.04,8.04,0,0,1-.408,1.9,6.682,6.682,0,0,1-.682,1.359,2.207,2.207,0,0,1-.987.836,21.086,21.086,0,0,1-3.427,1.168,21.452,21.452,0,0,1-2.949.516,16.958,16.958,0,0,1-2.31.117,14.1,14.1,0,0,1-3.069-.4,6.559,6.559,0,0,1-1.967-.855,4.369,4.369,0,0,1-1.584-1.788,3.978,3.978,0,0,1-.395-1.516,8.254,8.254,0,0,1,.166-2.038,30.286,30.286,0,0,1,1.59-5.385c.517-1.3,1.076-2.588,1.691-3.849a3.539,3.539,0,0,0,.132-.339c0-.011-.01-.032-.019-.045s-.027-.027-.036-.024a1.44,1.44,0,0,0-.2.068,18.616,18.616,0,0,0-4.691,3.067,7.329,7.329,0,0,0-2.141,3.438,3.993,3.993,0,0,0-.16,1.246,1.793,1.793,0,0,0,.256.9,1.441,1.441,0,0,1,.129.228.761.761,0,0,1-.294.967,1.479,1.479,0,0,1-.637.231,2.941,2.941,0,0,1-1.249-.1,2.414,2.414,0,0,1-.385-.165.8.8,0,0,1-.368-.429,2.837,2.837,0,0,1-.2-.92,6.864,6.864,0,0,1,.388-2.584,14.049,14.049,0,0,1,1.679-3.263,12.694,12.694,0,0,1,1.846-2.15,22.2,22.2,0,0,1,4.406-3.215,34,34,0,0,1,3.841-1.828c.162-.065.323-.135.486-.2.05-.074.1-.145.147-.219.976-1.623,2.019-3.2,3.062-4.782.608-.921,1.2-1.853,1.806-2.777.461-.7.931-1.4,1.4-2.1.087-.131.166-.267.247-.4a.055.055,0,0,0,0-.051c-.02-.023-.047-.055-.072-.055a1.272,1.272,0,0,0-.261.024q-1.462.323-2.923.653a14.026,14.026,0,0,0-1.852.585,28.564,28.564,0,0,0-4.742,2.246,17.306,17.306,0,0,0-2.869,2.124,8.112,8.112,0,0,0-.933,1,4.437,4.437,0,0,0-.844,1.735,3.121,3.121,0,0,0-.016,1.253,3.527,3.527,0,0,0,.768,1.651c.2.242.421.469.64.7a.866.866,0,0,1,.2.3.857.857,0,0,1-.147.888,1.52,1.52,0,0,1-.589.429,2.482,2.482,0,0,1-.865.2,4.991,4.991,0,0,1-1.46-.148c-.288-.072-.573-.162-.852-.262a2.583,2.583,0,0,1-.882-.559,1.615,1.615,0,0,1-.508-.839c-.1-.427-.22-.848-.3-1.278a4.942,4.942,0,0,1,.005-1.831,7.163,7.163,0,0,1,.166-.716,14.22,14.22,0,0,1,2.4-4.875A15.311,15.311,0,0,1,787.339,514a23.03,23.03,0,0,1,4.591-2.848,37.053,37.053,0,0,1,5.6-2.11q2.953-.859,5.971-1.449c1.1-.214,2.205-.4,3.312-.58,1.125-.179,2.254-.328,3.383-.476.712-.093,1.427-.164,2.141-.25.731-.088,1.461-.182,2.191-.271.418-.05.836-.093,1.254-.141s.835-.1,1.253-.151c.4-.05.8-.1,1.2-.157.677-.091,1.355-.176,2.027-.3a13.479,13.479,0,0,0,1.729-.44c.083-.027.165-.059.248-.086.14-.045.235.024.235.183a5.19,5.19,0,0,1-.026.577,10.222,10.222,0,0,1-.456,1.941,13.091,13.091,0,0,1-1,2.368,6.707,6.707,0,0,1-.361.58,3.036,3.036,0,0,1-.307.359.626.626,0,0,1-.421.188q-1.284.1-2.567.22c-.96.087-1.919.181-2.879.271-.523.049-1.048.091-1.571.142-.506.049-1.011.1-1.516.156l-1.36.142c-.767.082-1.534.157-2.3.249-.661.079-1.32.176-1.979.268-.555.077-1.11.157-1.665.237A.859.859,0,0,0,803.952,512.657Z" transform="translate(-6.747 -196.913)" fill="#fff"/>
    <path id="Path_18599" data-name="Path 18599" d="M959.215,556.038a4.887,4.887,0,0,1,.749.658,3.389,3.389,0,0,1,.813,1.395,2.762,2.762,0,0,1,.09.516,1.5,1.5,0,0,1-.208.907c-.215.361-.424.727-.63,1.093a37.688,37.688,0,0,0-1.746,3.474,7.362,7.362,0,0,0-.451,1.287c-.012.051-.014.1-.021.156a.109.109,0,0,0,.1.094,1.214,1.214,0,0,0,.2-.041,5.941,5.941,0,0,0,1.5-.858,14.043,14.043,0,0,0,1.405-1.267,23.686,23.686,0,0,0,2.163-2.575,2.3,2.3,0,0,0,.241-.405,68.338,68.338,0,0,1,4.208-7.7c.433-.7.878-1.394,1.315-2.092a1.623,1.623,0,0,0,.109-.235c0-.007-.024-.039-.03-.037a1.5,1.5,0,0,0-.24.082q-.751.378-1.5.763a2.477,2.477,0,0,1-.587.224,1.042,1.042,0,0,1-.62-.025.917.917,0,0,1-.572-1.15,1.623,1.623,0,0,1,.52-.836,4.6,4.6,0,0,1,.509-.371,36.144,36.144,0,0,1,4.146-2.27c.254-.118.509-.234.767-.345a.47.47,0,0,0,.23-.205l.053-.091a67.244,67.244,0,0,0,3.158-6.116q.17-.384.334-.772a.382.382,0,0,1,.271-.223,1.217,1.217,0,0,1,.622-.02,2.785,2.785,0,0,1,.827.326,3.87,3.87,0,0,1,1.694,2.01,1.894,1.894,0,0,1-.128,1.717c-.241.407-.464.825-.693,1.238a.09.09,0,0,0,.059.119.889.889,0,0,0,.1.007c.087-.007.175-.013.261-.028a24.574,24.574,0,0,1,5.031-.283c.07,0,.14.007.21.013a.218.218,0,0,1,.218.243,2.473,2.473,0,0,1-.087.727A4.441,4.441,0,0,1,982.557,547c-.107.114-.217.224-.34.351.084.065.15.119.219.168.229.163.461.319.687.485a5.116,5.116,0,0,1,.982.946,2.429,2.429,0,0,1,.448.827c.024.084.049.168.066.254a1.045,1.045,0,0,1-.275.971c-.168.178-.341.354-.526.514a8.474,8.474,0,0,0-1.146,1.229c-.15.194-.3.385-.458.577a8.667,8.667,0,0,0-1.422,2.561,16.836,16.836,0,0,0-.913,4.306c-.042.541-.111,1.081-.169,1.621-.044.4-.091.8-.135,1.2a8.264,8.264,0,0,1-.979,3.14,6.827,6.827,0,0,1-2.252,2.456,6.092,6.092,0,0,1-2.69.982,5.852,5.852,0,0,1-2.689-.333,4.285,4.285,0,0,1-1.1-.608,3.512,3.512,0,0,1-.966-1.1c-.06-.107-.113-.218-.171-.326-.049-.092-.123-.1-.215-.025s-.186.16-.28.239c-.174.146-.346.3-.526.437a7.651,7.651,0,0,1-2.7,1.365,4.028,4.028,0,0,1-1.193.165,2,2,0,0,1-1.9-1.259,2.61,2.61,0,0,1-.235-.858c-.027-.332-.044-.664-.069-1a.1.1,0,0,0-.06-.071.113.113,0,0,0-.093.021c-.106.091-.208.188-.31.284-.51.482-1.043.938-1.593,1.372a7.488,7.488,0,0,1-2.485,1.336,3.744,3.744,0,0,1-2.325-.026,2.311,2.311,0,0,1-1.476-1.4,2.836,2.836,0,0,1-.222-.915c-.012-.245-.014-.49-.02-.735,0-.05.01-.106-.046-.137a.116.116,0,0,0-.141.028c-.133.115-.264.231-.4.346a22.032,22.032,0,0,1-2.331,1.8,6.97,6.97,0,0,1-1.392.733,4.732,4.732,0,0,1-.961.262,3.463,3.463,0,0,1-3.294-1.449,3.946,3.946,0,0,1-.657-1.646,7.364,7.364,0,0,1,.213-3.277,15.776,15.776,0,0,1,1.418-3.328,26.3,26.3,0,0,1,3.255-4.512,21.527,21.527,0,0,1,2.771-2.649,14.848,14.848,0,0,1,3.075-1.9,7.9,7.9,0,0,1,2.208-.657,5.806,5.806,0,0,1,2.548.2,2.311,2.311,0,0,1,1.439,1.225,3.925,3.925,0,0,1,.327,1,6.785,6.785,0,0,1,.075,1.833,11.454,11.454,0,0,1-.2,1.351.619.619,0,0,1-.427.487,3.192,3.192,0,0,1-.877.15,1.138,1.138,0,0,0-.413.054c.022-.039.029-.04.023,0Zm20.8-8.531c-.393.015-.815.017-1.233.052q-.811.068-1.618.181c-.45.063-.9.155-1.344.238a.518.518,0,0,0-.37.263q-.414.7-.848,1.39-1,1.576-2.006,3.145c-1.246,1.948-2.435,3.93-3.591,5.932-.437.758-.857,1.527-1.276,2.3s-.8,1.555-1.156,2.357a9.92,9.92,0,0,0-.506,1.323c-.08.286-.143.577-.209.867,0,.019.038.066.063.069a.464.464,0,0,0,.2-.005,5.368,5.368,0,0,0,.532-.223,8.047,8.047,0,0,0,1.792-1.276.626.626,0,0,0,.18-.313,7.261,7.261,0,0,1,.423-1.13,7.586,7.586,0,0,1,2.146-2.815,2.238,2.238,0,0,0,.362-.378c.48-.6.932-1.227,1.383-1.852,1.126-1.564,2.278-3.108,3.523-4.581.441-.522.9-1.025,1.323-1.564.28-.359.572-.709.862-1.06a19.676,19.676,0,0,1,2.375-2.449c.053-.046.106-.092.158-.138l.116-.107c.047-.044.064-.116.033-.137s-.056-.046-.085-.047C980.852,547.529,980.449,547.518,980.019,547.506ZM958.6,555.623a.822.822,0,0,0,.043-.148c.029-.3.056-.593.078-.889.01-.14.006-.28.006-.421a1.852,1.852,0,0,0-.113-.618.944.944,0,0,0-.844-.687,2.778,2.778,0,0,0-.367-.008,3.425,3.425,0,0,0-1.219.294,5.864,5.864,0,0,0-1.172.7,13.3,13.3,0,0,0-2.043,1.889,24.405,24.405,0,0,0-3.768,5.8,7.785,7.785,0,0,0-.411,1.08,7.155,7.155,0,0,0-.286,1.548,1.489,1.489,0,0,0,.047.573.645.645,0,0,0,.512.473,1.454,1.454,0,0,0,.313.025,2.071,2.071,0,0,0,1-.287,5.3,5.3,0,0,0,.808-.585c.421-.371.843-.741,1.247-1.13a31.4,31.4,0,0,0,3.057-3.47,3.041,3.041,0,0,0,.356-.581c.221-.477.457-.947.668-1.428.176-.4.326-.813.486-1.22a1.554,1.554,0,0,0,.122-.922.074.074,0,0,1,0-.051.566.566,0,0,1,.094-.121.209.209,0,0,1,.1-.028,1.682,1.682,0,0,1,.778.065A1.465,1.465,0,0,0,958.6,555.623Zm16.574,2.842c.026.089.052.171.074.254a.492.492,0,0,1-.089.446c-.117.153-.223.315-.341.466a.556.556,0,0,0-.12.44,9.263,9.263,0,0,1,.033,1.47,6.605,6.605,0,0,1-.2,1.349,1.5,1.5,0,0,1-.337.7c-.029.031-.117.042-.141.012-.056-.067-.109-.136-.165-.2a.819.819,0,0,0-.6-.291,1.2,1.2,0,0,0-.365.024,2.626,2.626,0,0,0-1.647,1.215,1.067,1.067,0,0,0-.155.806c.011.051.017.1.024.156a1.412,1.412,0,0,0,.713,1.048,2.457,2.457,0,0,0,.678.28,1.53,1.53,0,0,0,1.472-.334,3.171,3.171,0,0,0,.711-.9,4.664,4.664,0,0,0,.532-1.8c.085-1.03.156-2.062.235-3.093a15.159,15.159,0,0,1,.258-2.085c.052-.239.091-.481.134-.722,0-.015-.011-.047-.017-.047-.03,0-.071,0-.087.014A7.082,7.082,0,0,0,975.169,558.465Z" transform="translate(-143.513 -225.818)" fill="#fff"/>
    <path id="Path_18600" data-name="Path 18600" d="M1044.217,292.811c0-.04.009-.089-.008-.1a2.536,2.536,0,0,0-.256-.179,9.567,9.567,0,0,1-1.078-.751,5.053,5.053,0,0,1-.541-.5,1.4,1.4,0,0,1-.306-1.374.27.27,0,0,1,.209-.21c.594-.149,1.19-.295,1.78-.46.608-.17,1.218-.327,1.839-.438a2.234,2.234,0,0,1,.313-.029c.027,0,.056.03.092.052-.031.1-.059.2-.1.3a1.117,1.117,0,0,0,.236,1.174,2.19,2.19,0,0,0,.38.36,4.529,4.529,0,0,0,.577.363c.325.171.665.315.989.489a.831.831,0,0,0,.609.075c.427-.1.854-.194,1.278-.3a24.017,24.017,0,0,0,2.308-.714,4.75,4.75,0,0,0,2.644-2.282,19.36,19.36,0,0,0,1.149-2.478,8.476,8.476,0,0,0,.42-1.572,5.152,5.152,0,0,0,.053-.943,1.812,1.812,0,0,0-.112-.565,1.309,1.309,0,0,0-1.164-.924,3.557,3.557,0,0,0-1.452.17,8.436,8.436,0,0,0-1.312.536,13.1,13.1,0,0,0-1.83,1.135,20.194,20.194,0,0,0-3.213,2.944q-.174.2-.346.4c-.4.458-.237.36-.823.493-.888.2-1.785.361-2.678.541-.326.065-.651.137-.977.2a.278.278,0,0,1-.241-.023.444.444,0,0,1,.09-.25,15.822,15.822,0,0,1,3.97-4.651,18.763,18.763,0,0,1,3.362-2.145,13.256,13.256,0,0,1,3.581-1.179,8.49,8.49,0,0,1,3.395.059,4.889,4.889,0,0,1,1.722.756,3.372,3.372,0,0,1,1.248,1.589,5.025,5.025,0,0,1,.3,2.427,8.975,8.975,0,0,1-.619,2.275,16.224,16.224,0,0,1-1.136,2.25,9.034,9.034,0,0,1-.725,1.032,7.789,7.789,0,0,1-2,1.766,15.605,15.605,0,0,1-2.841,1.356c-.049.018-.1.031-.15.049-.4.144-.475.139-.134.482a4.477,4.477,0,0,1,.44.522,3.92,3.92,0,0,1,.742,2.929,7.673,7.673,0,0,1-.489,1.823,11.9,11.9,0,0,1-.5,1.1,23.237,23.237,0,0,1-3.094,4.621,16.391,16.391,0,0,1-3.719,3.15,10.631,10.631,0,0,1-3.336,1.374,7.781,7.781,0,0,1-2.509.144,6,6,0,0,1-1.918-.527,5.1,5.1,0,0,1-2.884-3.48,6.824,6.824,0,0,1,.052-3.687,10.617,10.617,0,0,1,.369-1.095,15.847,15.847,0,0,1,2.6-4.3,10.182,10.182,0,0,1,1.772-1.639,15.3,15.3,0,0,1,3.677-2.012C1044.029,292.9,1044.123,292.851,1044.217,292.811Zm-5.963,11.989a4.683,4.683,0,0,0,.059,1.184,2.13,2.13,0,0,0,.216.645,1.823,1.823,0,0,0,1.235.977,2.888,2.888,0,0,0,1.147.04,5.739,5.739,0,0,0,1.452-.44,9.5,9.5,0,0,0,2.09-1.3,16.179,16.179,0,0,0,2.07-2.011,21.039,21.039,0,0,0,2.758-4.146,5.832,5.832,0,0,0,.257-.575,4.5,4.5,0,0,0,.264-1.014,2.923,2.923,0,0,0-.437-2.009,4.872,4.872,0,0,0-1.193-1.246.381.381,0,0,0-.2-.045.455.455,0,0,0-.154.027c-.855.254-1.713.5-2.552.8a11.954,11.954,0,0,0-2.4,1.169,8.143,8.143,0,0,0-2.653,2.65,17.914,17.914,0,0,0-1.461,3.022A7.232,7.232,0,0,0,1038.254,304.8Z" transform="translate(-220.649 -7.352)" fill="#fff"/>
    <path id="Path_18601" data-name="Path 18601" d="M937.764,281.753a1.409,1.409,0,0,0-.623.023c-1.04.153-2.083.282-3.126.415-.54.069-1.082.1-1.624.132a10.352,10.352,0,0,1-2.408-.153,4.334,4.334,0,0,1-1.19-.4,4.025,4.025,0,0,1-.619-.4,2.416,2.416,0,0,1-.929-1.6,4.425,4.425,0,0,1-.036-1.31c.019-.14.084-.167.212-.08s.258.182.39.268a4.817,4.817,0,0,0,1.79.724,4.058,4.058,0,0,0,.521.059,14.96,14.96,0,0,0,3.2-.185q2.2-.376,4.406-.73a19.937,19.937,0,0,1,2.456-.25c.929-.031,1.857-.022,2.787,0a3.244,3.244,0,0,1,1.9.688c-.042.051-.066.108-.107.126a5.045,5.045,0,0,0-1.685,1.319c-.371.42-.723.858-1.063,1.3-.787,1.032-1.5,2.114-2.186,3.217-1.054,1.7-2.063,3.421-3.046,5.16q-1.565,2.769-3.19,5.5c-.081.135-.154.273-.233.414a.564.564,0,0,0,.131.1,13.069,13.069,0,0,0,1.932.493,2.465,2.465,0,0,0,.992,0,.766.766,0,0,1,.1-.009.1.1,0,0,1,.094.142c-.03.082-.059.165-.1.243a2.02,2.02,0,0,1-1.331,1.106,5.318,5.318,0,0,1-1.243.194,9.564,9.564,0,0,1-1.732-.055.282.282,0,0,0-.308.146c-.083.134-.169.267-.253.4-.874,1.376-1.782,2.729-2.739,4.049a23.459,23.459,0,0,1-2.584,3.042,12.3,12.3,0,0,1-1.4,1.191,7.736,7.736,0,0,1-1.553.877,4.238,4.238,0,0,1-1.112.3,3.2,3.2,0,0,1-1.946-.4c.049-.048.075-.092.112-.1a3.972,3.972,0,0,0,1.474-.983,14.25,14.25,0,0,0,1.316-1.5,31.456,31.456,0,0,0,2.039-3c.874-1.457,1.73-2.926,2.594-4.39.036-.06.068-.123.1-.185a.143.143,0,0,0-.1-.2c-.638-.114-1.275-.233-1.914-.337-.328-.054-.66-.085-.991-.121a3.94,3.94,0,0,0-1.913.207.1.1,0,0,1-.122-.117,3.383,3.383,0,0,1,1.863-2.52,3.259,3.259,0,0,1,1.112-.293,6.75,6.75,0,0,1,1.78.074,14.139,14.139,0,0,1,1.486.331c.1.029.2.053.306.078a.172.172,0,0,0,.178-.084q.121-.2.237-.409,1.936-3.435,3.961-6.818a46.238,46.238,0,0,1,3.067-4.523c.258-.332.526-.657.789-.985a.21.21,0,0,0,.066-.188l.014-.017Z" transform="translate(-123.788 -6.025)" fill="#fff"/>
    <path id="Path_18602" data-name="Path 18602" d="M792.574,302.659a.891.891,0,0,1-.139.388,6.871,6.871,0,0,0-.509,1.6,2.6,2.6,0,0,0,.05,1.249,1.979,1.979,0,0,0,.189.43,1.1,1.1,0,0,0,.814.521,2.211,2.211,0,0,0,.887-.048,5.575,5.575,0,0,0,1.258-.523,11.083,11.083,0,0,0,2.178-1.553c.374-.344.739-.7,1.094-1.062.638-.652,1.226-1.349,1.8-2.059a1.409,1.409,0,0,0,.143-.218c.01-.019-.017-.084-.031-.085-.157-.014-.314-.021-.471-.026a6.8,6.8,0,0,1-5.535-3.052,8.083,8.083,0,0,1-1.26-3.149,11.587,11.587,0,0,1-.148-2.618,13.437,13.437,0,0,1,1.28-5.063,19,19,0,0,1,1.942-3.3,12.712,12.712,0,0,1,5.049-4.093,10.14,10.14,0,0,1,3.334-.89,7.58,7.58,0,0,1,3.359.446,5.586,5.586,0,0,1,3.27,3.158,7.276,7.276,0,0,1,.514,1.924,11.03,11.03,0,0,1,.114,1.362,11.653,11.653,0,0,1-.359,2.861,21.267,21.267,0,0,1-1.273,3.614,42.556,42.556,0,0,1-3.06,5.689,47.188,47.188,0,0,1-3.744,5.139,22.612,22.612,0,0,1-3.527,3.375,13.341,13.341,0,0,1-2.409,1.492,8.577,8.577,0,0,1-2.295.731,6.415,6.415,0,0,1-1.52.043,5.966,5.966,0,0,1-1.735-.4,4.062,4.062,0,0,1-2.579-2.968,6.368,6.368,0,0,1-.152-2.348,11.1,11.1,0,0,1,.255-1.394c.026-.1.061-.2.1-.3a.236.236,0,0,1,.141-.147,1.78,1.78,0,0,1,.3-.1.694.694,0,0,1,.5.095,3.927,3.927,0,0,1,.622.482c.141.132.278.267.425.392.12.1.249.193.377.285a.679.679,0,0,0,.4.115C792.334,302.65,792.455,302.583,792.574,302.659Zm9.863-4.052c.057-.072.116-.137.162-.209.2-.308.395-.62.6-.928.89-1.365,1.742-2.753,2.51-4.19a27.6,27.6,0,0,0,1.589-3.486,19.716,19.716,0,0,0,.843-2.869,8.044,8.044,0,0,0,.15-2.143,3.919,3.919,0,0,0-.293-1.274,2.222,2.222,0,0,0-.682-.917,2.775,2.775,0,0,0-1.44-.585,4.489,4.489,0,0,0-2.013.271,7.732,7.732,0,0,0-1.5.753,10.607,10.607,0,0,0-3.092,3.033A20.771,20.771,0,0,0,797.4,289.4a13,13,0,0,0-1.041,3.567,6.723,6.723,0,0,0,.05,2.248,3.949,3.949,0,0,0,2.267,2.91,4.363,4.363,0,0,0,.486.2,5.937,5.937,0,0,0,1.7.311c.42.014.841,0,1.261,0C802.224,298.635,802.328,298.617,802.437,298.606Z" transform="translate(-13.159 -6.716)" fill="#fff"/>
    <g id="Group_3668" data-name="Group 3668" transform="translate(773.443 271.104)">
      <path id="Path_18603" data-name="Path 18603" d="M779.57,534.058c-.031.009-.079.009-.09.03-.1.183-.2.37-.3.556a2.161,2.161,0,0,0-.117.235,1.222,1.222,0,0,1-.681.692c-.3.138-.594.3-.894.445a2.255,2.255,0,0,1-1.383.19,2.953,2.953,0,0,1-.9-.285q-.466-.243-.939-.474a1.1,1.1,0,0,1-.505-.513,1.9,1.9,0,0,1-.323-1.3c0-.964,0-1.929,0-2.893a1.863,1.863,0,0,1,.135-.822,1.3,1.3,0,0,0,.087-.355,10.475,10.475,0,0,1,.714-2.576,15.29,15.29,0,0,1,1.472-2.665,1.623,1.623,0,0,0,.281-.457,1.807,1.807,0,0,0-.16-.123c-.149-.092-.308-.168-.451-.269a2.32,2.32,0,0,1-.82-.939,1.483,1.483,0,0,0-.074-.139,7.405,7.405,0,0,1-.751-2.176,5.278,5.278,0,0,1,.07-2.55c.09-.338.188-.675.3-1.008a4.334,4.334,0,0,0,.164-.662,11,11,0,0,1,.336-1.432A14.484,14.484,0,0,1,779,507.8a23.961,23.961,0,0,1,5.876-3.842,38.068,38.068,0,0,1,5.66-2.1q2.223-.638,4.481-1.134c1.163-.256,2.331-.49,3.508-.68.761-.123,1.519-.264,2.281-.381.623-.1,1.25-.169,1.876-.25,1.008-.129,2.016-.259,3.025-.381.731-.089,1.463-.162,2.194-.25,1.027-.123,2.052-.256,3.078-.38.765-.093,1.529-.2,2.29-.321a9.748,9.748,0,0,0,1.676-.435c.181-.064.365-.121.55-.173a1.075,1.075,0,0,1,1.227.733,3.512,3.512,0,0,1,.083,1.043.906.906,0,0,0,.11.555.765.765,0,0,1,.09.4q0,1.394,0,2.788a1.486,1.486,0,0,1-.084.463,14.144,14.144,0,0,1-.754,1.9c-.208.425-.415.851-.637,1.269-.164.309-.346.609-.532.906a1.541,1.541,0,0,1-.7.613c-.241.1-.476.223-.707.349a1.423,1.423,0,0,1-.707.171c-.14,0-.281,0-.421,0-1.035,0-2.069,0-3.1,0a1.285,1.285,0,0,0-.7.172c-.1.063-.22.107-.329.165a1.042,1.042,0,0,1-.4.105c-.96.092-1.918.191-2.878.286-.837.083-1.676.156-2.512.248-.871.1-1.74.21-2.609.317a.108.108,0,0,0-.088.153c.051.13.1.261.156.39a.905.905,0,0,1-.035.809c-.327.64-.646,1.284-1.008,1.905-.07.121-.13.247-.192.372a.054.054,0,0,0,.006.05c.026.019.059.046.086.042.4-.062.8-.123,1.193-.194q1.629-.292,3.258-.592c.637-.118,1.274-.241,1.91-.366a1.1,1.1,0,0,1,.8.164,1.2,1.2,0,0,1,.565.79,1.676,1.676,0,0,1,.039.78c-.029.118-.038.241-.056.366.173.346.343.692.52,1.034a1.076,1.076,0,0,1,.151.6.264.264,0,0,0,.032.1.237.237,0,0,0,.189-.066c.268-.2.536-.4.809-.587a13.556,13.556,0,0,1,2.42-1.371,9.739,9.739,0,0,1,3.2-.769,4.72,4.72,0,0,1,1.152.081,11.2,11.2,0,0,1,1.174.281,3.068,3.068,0,0,1,1.607,1.127,3.723,3.723,0,0,1,.688,1.463,6.479,6.479,0,0,1,.21,1.242,1.044,1.044,0,0,0,.12.453,5.264,5.264,0,0,1,.458,2.87,10.262,10.262,0,0,1-.172,1.25,2.251,2.251,0,0,1-.2.6c-.121.234-.236.47-.35.707a1.7,1.7,0,0,0-.12.29.33.33,0,0,0,.009.2,7.028,7.028,0,0,0,.393.794c.045-.028.085-.039.1-.065a1.362,1.362,0,0,0,.1-.184c.707-1.528,1.491-3.016,2.325-4.479a3.094,3.094,0,0,0,.16-.329.1.1,0,0,0-.025-.094,2.063,2.063,0,0,0-.214-.148,1.026,1.026,0,0,1-.383-.423c-.171-.346-.346-.689-.517-1.035a.972.972,0,0,1-.036-.815c.044-.114.088-.229.14-.34.066-.143.141-.282.209-.424.232-.481.233-.393.179-.9a2.246,2.246,0,0,1,.319-1.361,2.7,2.7,0,0,1,.8-.9c.187-.13.373-.263.565-.384a36.609,36.609,0,0,1,4.341-2.353c.08-.036.158-.077.24-.107a.5.5,0,0,0,.265-.243c.095-.168.19-.335.284-.5.848-1.515,1.663-3.046,2.387-4.624.2-.446.4-.9.6-1.345a2.93,2.93,0,0,1,.193-.372.961.961,0,0,1,.525-.418,4.938,4.938,0,0,1,.764-.181,1.73,1.73,0,0,1,.522.026,4.285,4.285,0,0,1,2.563,1.532,6.9,6.9,0,0,1,.522.725,4.127,4.127,0,0,1,.579,1.676,2.636,2.636,0,0,1,0,.525.706.706,0,0,0,.061.358c.144.291.15.322.471.308l.894-.038c.754-.035,1.508,0,2.261.031a2.031,2.031,0,0,1,.514.1.907.907,0,0,1,.638.642,1.9,1.9,0,0,1,.06,1.037,2.111,2.111,0,0,0-.039.246c.181.357.35.7.531,1.042a1.057,1.057,0,0,1,.115.506,2.845,2.845,0,0,1-.255,1.12c-.053.129-.12.252-.168.352a.458.458,0,0,0,.138.308,3.632,3.632,0,0,1,.649,1.646,1.03,1.03,0,0,1-.025.469.431.431,0,0,0,.032.356,1.255,1.255,0,0,1,.151.707c-.008.544-.005,1.087,0,1.631a1.218,1.218,0,0,1-.112.506,2.3,2.3,0,0,1-.662.872,11.341,11.341,0,0,0-1.733,1.9c-.2.263-.393.537-.585.809a2.538,2.538,0,0,0-.3.61,16.854,16.854,0,0,0-.708,2.583c-.112.586-.185,1.176-.238,1.771-.073.82-.146,1.641-.266,2.457-.046.312-.075.626-.121.938a7.194,7.194,0,0,1-.6,2.009c-.283.6-.578,1.2-.9,1.784a6.632,6.632,0,0,1-2.183,2.38l-.044.029a19.8,19.8,0,0,1-2.444,1.216,5.827,5.827,0,0,1-4.5-.225c-.312-.159-.628-.311-.941-.468A4.742,4.742,0,0,1,825,536.7c-.026-.023-.052-.047-.08-.069a.207.207,0,0,0-.286-.022c-.525.319-1.081.579-1.629.853a7.381,7.381,0,0,1-1.668.629,3.344,3.344,0,0,1-1.406.088,2.589,2.589,0,0,1-.647-.211l-.943-.465a2.2,2.2,0,0,1-1-.978,2.45,2.45,0,0,0-.161-.268.1.1,0,0,0-.094-.018.9.9,0,0,0-.18.1,9.241,9.241,0,0,1-1.443.861q-.448.22-.895.444a7.382,7.382,0,0,1-.825.34,4.046,4.046,0,0,1-1.13.229,3.381,3.381,0,0,1-1.591-.278c-.448-.2-.885-.423-1.319-.651a2.161,2.161,0,0,1-.916-.917c-.066-.124-.133-.246-.2-.369a.137.137,0,0,0-.139-.044c-.075.045-.152.087-.222.139a11.214,11.214,0,0,1-1.852,1.1c-.253.12-.5.248-.755.371a5.2,5.2,0,0,1-1.4.446,2.5,2.5,0,0,1-.94-.013,4.562,4.562,0,0,1-1.239-.421c-.2-.106-.406-.206-.611-.3a4.343,4.343,0,0,1-1.062-.674.565.565,0,0,0-.142-.069,1.12,1.12,0,0,0-.079.141c-.235.606-.544,1.177-.833,1.757a5.521,5.521,0,0,1-.52.852,1.974,1.974,0,0,1-.672.577,20.424,20.424,0,0,1-3.481,1.467,2.237,2.237,0,0,1-.774.12c-.07,0-.141,0-.21,0a1.016,1.016,0,0,0-.6.141c-.03.018-.065.028-.094.047a1.9,1.9,0,0,1-1.053.256c-2.122-.011-4.243-.005-6.365-.005-.088,0-.175,0-.263,0a1.077,1.077,0,0,1-.6-.146,3.46,3.46,0,0,0-.376-.188.841.841,0,0,0-.3-.1,1.278,1.278,0,0,1-.545-.174q-.4-.2-.8-.4a6.317,6.317,0,0,1-.9-.545,4.2,4.2,0,0,1-1.265-1.456q-.328-.629-.639-1.267a3.983,3.983,0,0,1-.411-1.777,6.518,6.518,0,0,1,.087-1.257,1.076,1.076,0,0,0,.028-.519c.027-.042.07-.081.079-.127.116-.582.255-1.159.406-1.733.137-.523.276-1.046.413-1.57q.224-.862.444-1.724a.864.864,0,0,0,.021-.155c0-.015-.012-.042-.023-.044a.171.171,0,0,0-.091,0,.258.258,0,0,0-.083.061,8.153,8.153,0,0,0-1.144,1.429,1.27,1.27,0,0,0-.121.232,4.426,4.426,0,0,0-.338,1.737,1.733,1.733,0,0,0,.178.755A1.671,1.671,0,0,1,779.57,534.058Zm36.135-13.037a1.16,1.16,0,0,1,.414-.053,3.19,3.19,0,0,0,.877-.15.619.619,0,0,0,.427-.487,11.452,11.452,0,0,0,.2-1.351,6.785,6.785,0,0,0-.075-1.833,3.925,3.925,0,0,0-.327-1,2.311,2.311,0,0,0-1.439-1.225,5.808,5.808,0,0,0-2.548-.2,7.9,7.9,0,0,0-2.208.657,14.845,14.845,0,0,0-3.075,1.905,21.522,21.522,0,0,0-2.771,2.649,26.3,26.3,0,0,0-3.255,4.512,15.774,15.774,0,0,0-1.418,3.328,7.364,7.364,0,0,0-.213,3.277,3.946,3.946,0,0,0,.657,1.646,3.463,3.463,0,0,0,3.294,1.449,4.732,4.732,0,0,0,.961-.262,6.969,6.969,0,0,0,1.392-.733,22.032,22.032,0,0,0,2.331-1.8c.132-.116.263-.232.4-.347a.116.116,0,0,1,.141-.027c.056.031.044.087.046.137.007.245.008.49.02.735a2.836,2.836,0,0,0,.222.915,2.311,2.311,0,0,0,1.476,1.4,3.745,3.745,0,0,0,2.325.026,7.49,7.49,0,0,0,2.485-1.336c.55-.435,1.084-.89,1.593-1.372.1-.1.2-.193.31-.284a.113.113,0,0,1,.093-.021.1.1,0,0,1,.06.071c.026.332.043.664.069,1a2.611,2.611,0,0,0,.235.858,2,2,0,0,0,1.9,1.259,4.03,4.03,0,0,0,1.193-.165,7.652,7.652,0,0,0,2.7-1.365c.179-.141.351-.29.526-.437.094-.079.185-.161.28-.239s.166-.067.215.024c.058.108.111.219.171.326a3.513,3.513,0,0,0,.966,1.1,4.287,4.287,0,0,0,1.1.608,5.852,5.852,0,0,0,2.689.333,6.091,6.091,0,0,0,2.69-.982,6.827,6.827,0,0,0,2.252-2.456,8.264,8.264,0,0,0,.979-3.14c.044-.4.092-.8.135-1.2.058-.54.128-1.079.169-1.621a16.837,16.837,0,0,1,.913-4.306,8.668,8.668,0,0,1,1.422-2.561c.153-.192.308-.383.458-.577a8.475,8.475,0,0,1,1.146-1.229c.185-.16.358-.336.526-.514a1.045,1.045,0,0,0,.275-.971c-.017-.086-.042-.17-.066-.254a2.429,2.429,0,0,0-.448-.827,5.116,5.116,0,0,0-.982-.946c-.226-.166-.459-.323-.687-.485-.069-.049-.134-.1-.219-.168.123-.127.233-.238.34-.351A4.441,4.441,0,0,0,840.1,510.1a2.473,2.473,0,0,0,.087-.727.218.218,0,0,0-.218-.243c-.07-.006-.14-.011-.21-.013a24.568,24.568,0,0,0-5.031.283c-.086.015-.174.021-.261.028a.889.889,0,0,1-.1-.007.09.09,0,0,1-.059-.119c.23-.413.453-.831.693-1.238a1.894,1.894,0,0,0,.128-1.717,3.87,3.87,0,0,0-1.694-2.01,2.784,2.784,0,0,0-.827-.326,1.217,1.217,0,0,0-.622.02.382.382,0,0,0-.271.223q-.163.388-.334.772a67.248,67.248,0,0,1-3.158,6.116l-.053.091a.471.471,0,0,1-.23.205c-.257.111-.512.227-.767.345a36.134,36.134,0,0,0-4.146,2.27,4.6,4.6,0,0,0-.509.371,1.623,1.623,0,0,0-.52.836.916.916,0,0,0,.572,1.15,1.042,1.042,0,0,0,.62.025,2.475,2.475,0,0,0,.587-.224q.747-.386,1.5-.763a1.5,1.5,0,0,1,.24-.082c.006,0,.033.029.03.037a1.62,1.62,0,0,1-.109.235c-.437.7-.882,1.391-1.315,2.092a68.339,68.339,0,0,0-4.208,7.7,2.3,2.3,0,0,1-.241.4,23.693,23.693,0,0,1-2.163,2.575,14.043,14.043,0,0,1-1.405,1.267,5.942,5.942,0,0,1-1.5.858,1.221,1.221,0,0,1-.2.041.109.109,0,0,1-.1-.094c.007-.052.009-.1.021-.156a7.363,7.363,0,0,1,.451-1.287,37.694,37.694,0,0,1,1.746-3.473c.206-.367.415-.732.63-1.093a1.5,1.5,0,0,0,.208-.907,2.762,2.762,0,0,0-.09-.516,3.389,3.389,0,0,0-.813-1.395A4.884,4.884,0,0,0,815.7,521Zm-18.5-14.5a.859.859,0,0,1,.111-.033c.555-.08,1.11-.16,1.665-.237.659-.091,1.318-.188,1.979-.268.766-.092,1.533-.167,2.3-.249l1.36-.142c.505-.053,1.011-.108,1.516-.156.523-.05,1.047-.093,1.571-.142.96-.09,1.919-.184,2.879-.271q1.283-.116,2.567-.22a.626.626,0,0,0,.421-.188,3.036,3.036,0,0,0,.307-.359,6.707,6.707,0,0,0,.361-.58,13.091,13.091,0,0,0,1-2.368,10.222,10.222,0,0,0,.456-1.941,5.19,5.19,0,0,0,.026-.577c0-.159-.095-.228-.235-.183-.083.027-.165.059-.248.086a13.479,13.479,0,0,1-1.729.44c-.672.125-1.35.21-2.027.3-.4.054-.8.107-1.2.157q-.626.079-1.253.151c-.418.048-.836.091-1.254.141-.731.088-1.46.183-2.191.271-.713.085-1.428.156-2.141.25-1.129.148-2.258.3-3.383.476-1.107.176-2.212.366-3.312.58q-3.018.587-5.971,1.449a37.053,37.053,0,0,0-5.6,2.11,23.028,23.028,0,0,0-4.591,2.848,15.311,15.311,0,0,0-2.527,2.519,14.221,14.221,0,0,0-2.4,4.875,7.163,7.163,0,0,0-.166.716,4.942,4.942,0,0,0-.005,1.831c.084.429.207.851.3,1.278a1.615,1.615,0,0,0,.508.839,2.583,2.583,0,0,0,.882.559c.28.1.564.191.852.262a4.991,4.991,0,0,0,1.46.148,2.482,2.482,0,0,0,.865-.2,1.52,1.52,0,0,0,.589-.429.857.857,0,0,0,.147-.888.866.866,0,0,0-.2-.3c-.219-.227-.439-.454-.64-.7a3.527,3.527,0,0,1-.768-1.651,3.121,3.121,0,0,1,.016-1.253,4.437,4.437,0,0,1,.844-1.735,8.112,8.112,0,0,1,.933-1,17.306,17.306,0,0,1,2.869-2.124,28.564,28.564,0,0,1,4.742-2.246,14.026,14.026,0,0,1,1.852-.585q1.461-.329,2.923-.653a1.268,1.268,0,0,1,.261-.024c.024,0,.052.032.072.055a.055.055,0,0,1,0,.051c-.081.135-.16.272-.247.4-.464.7-.934,1.4-1.4,2.1-.605.924-1.2,1.855-1.806,2.777-1.043,1.58-2.086,3.159-3.062,4.782-.045.075-.1.145-.147.219-.164.069-.324.14-.486.2a34,34,0,0,0-3.841,1.828,22.2,22.2,0,0,0-4.406,3.215,12.694,12.694,0,0,0-1.846,2.15,14.049,14.049,0,0,0-1.679,3.263,6.864,6.864,0,0,0-.388,2.584,2.837,2.837,0,0,0,.2.92.8.8,0,0,0,.368.429,2.414,2.414,0,0,0,.385.165,2.941,2.941,0,0,0,1.249.1,1.479,1.479,0,0,0,.637-.231.761.761,0,0,0,.294-.967,1.441,1.441,0,0,0-.129-.228,1.793,1.793,0,0,1-.256-.9,3.993,3.993,0,0,1,.16-1.246,7.329,7.329,0,0,1,2.141-3.438,18.616,18.616,0,0,1,4.691-3.067,1.44,1.44,0,0,1,.2-.068c.009,0,.027.013.036.024s.024.033.019.045a3.539,3.539,0,0,1-.132.339c-.615,1.26-1.174,2.545-1.691,3.849a30.286,30.286,0,0,0-1.59,5.385,8.254,8.254,0,0,0-.166,2.038,3.978,3.978,0,0,0,.395,1.516A4.369,4.369,0,0,0,783.1,537.2a6.559,6.559,0,0,0,1.967.855,14.1,14.1,0,0,0,3.069.4,16.958,16.958,0,0,0,2.31-.117,21.452,21.452,0,0,0,2.949-.516,21.086,21.086,0,0,0,3.427-1.168,2.207,2.207,0,0,0,.987-.836,6.682,6.682,0,0,0,.682-1.359,8.04,8.04,0,0,0,.408-1.9,2.485,2.485,0,0,0-.078-.99,1.17,1.17,0,0,0-.178-.378.5.5,0,0,0-.4-.208,1.145,1.145,0,0,0-.55.154c-.423.21-.841.433-1.273.625a26.761,26.761,0,0,1-6.106,1.9,12.089,12.089,0,0,1-2.931.187,4.509,4.509,0,0,1-.828-.142,2.237,2.237,0,0,1-.581-.24,1.394,1.394,0,0,1-.691-1.472c.024-.138.052-.276.086-.412a25.056,25.056,0,0,1,2.327-6.012q1.46-2.65,3.152-5.157c.078-.115.161-.227.242-.342.162-.041.314-.084.467-.117.77-.169,1.543-.319,2.32-.458,1.122-.2,2.251-.347,3.382-.475.853-.1,1.709-.165,2.564-.251.89-.089,1.78-.166,2.674-.2.193-.008.385-.026.576-.05a.544.544,0,0,0,.326-.158c.086-.087.176-.171.256-.264a5.936,5.936,0,0,0,.6-.862,13.747,13.747,0,0,0,1.021-2.13,6.9,6.9,0,0,0,.223-.7,2.251,2.251,0,0,0,.058-.467c.009-.231-.1-.328-.317-.3-.07.008-.139.017-.208.03-.361.069-.723.135-1.083.209-1.853.381-3.722.68-5.584,1.012-1.31.234-2.624.449-3.928.717a.256.256,0,0,1-.1-.009c-.012,0-.032-.026-.03-.033a.885.885,0,0,1,.079-.189c.552-.833,1.109-1.662,1.659-2.5q1.114-1.691,2.094-3.464c.059-.107.112-.218.175-.324a.765.765,0,0,0,.052-.66,3.3,3.3,0,0,0-.24-.524,6.089,6.089,0,0,0-.623-.91c-.088-.109-.183-.213-.264-.327C797.205,506.628,797.213,506.569,797.206,506.521Zm.609,16.188c-.52,0-.906,0-1.291,0a1.358,1.358,0,0,0-1.05.249,2.649,2.649,0,0,1-.8.251c-.828.139-1.654.3-2.481.443a.592.592,0,0,0-.41.3c-.262.414-.54.819-.8,1.234a43.283,43.283,0,0,0-2.862,5.075,1.575,1.575,0,0,0-.15.389,3.211,3.211,0,0,1-.148.5c-.136.416-.276.831-.412,1.246-.022.066-.036.135-.052.2a.131.131,0,0,0,.1.156c.174.012.349.027.524.03a12.928,12.928,0,0,0,3.121-.38,25.335,25.335,0,0,0,6.047-2.216,1.991,1.991,0,0,1,1.466-.243.406.406,0,0,0,.052.006.188.188,0,0,0,.212-.116,8.331,8.331,0,0,0,.315-1.11,13.816,13.816,0,0,1,.522-2.033,14.5,14.5,0,0,1,1.2-2.679c.232-.412.485-.812.727-1.218a1.525,1.525,0,0,0,.113-.232c.007-.017-.029-.072-.049-.074a1.761,1.761,0,0,0-.312-.012c-.541.04-1.085.066-1.623.132A14.445,14.445,0,0,1,797.815,522.709Zm-15.694-3.945a.893.893,0,0,0,.129-.051,35.181,35.181,0,0,1,4.156-2,.491.491,0,0,1,.049-.019.456.456,0,0,0,.27-.234c.035-.061.072-.12.11-.179q1.033-1.614,2.066-3.228c.17-.265.347-.526.517-.791a.578.578,0,0,0,.055-.145c0-.008-.016-.033-.027-.034a.345.345,0,0,0-.149,0c-.587.227-1.173.455-1.757.69a17.46,17.46,0,0,0-4.235,2.5c-.4.312-.771.66-1.147,1a6.937,6.937,0,0,0-.735.82,1.23,1.23,0,0,0-.239.574.208.208,0,0,0,.035.147,3.777,3.777,0,0,0,.276.316,3.8,3.8,0,0,1,.523.586.11.11,0,0,0,.04.033A.468.468,0,0,0,782.121,518.764Z" transform="translate(-773.443 -461.881)" fill="#131627"/>
      <path id="Path_18604" data-name="Path 18604" d="M908.993,303.892c.115-.235.214-.44.315-.644a1.2,1.2,0,0,1,.557-.663c.016-.1-.054-.16-.1-.232a1.133,1.133,0,0,1-.121-1.007.952.952,0,0,1,.6-.62.61.61,0,0,1,.1-.034,2.248,2.248,0,0,0,1.122-.647,13.108,13.108,0,0,0,1.171-1.279,19.564,19.564,0,0,0,1.235-1.7c.457-.706.9-1.422,1.347-2.134.055-.089.1-.183.15-.276a.119.119,0,0,0-.081-.16c-.087-.006-.174-.01-.261-.016a1.2,1.2,0,0,0-.655.148c-.31.163-.633.3-.95.446a.294.294,0,0,1-.255,0c-.284-.137-.566-.278-.847-.421a.307.307,0,0,1-.124-.094,1.37,1.37,0,0,1-.3-.715q0-.552,0-1.1a.774.774,0,0,1,.083-.354c.087-.172.168-.347.25-.521a.412.412,0,0,0,.031-.305,1.049,1.049,0,0,1,.021-.621c.056-.184.1-.373.146-.559a4.379,4.379,0,0,1,.893-1.711,3.91,3.91,0,0,1,1.989-1.306,8.117,8.117,0,0,1,1.238-.234,4.374,4.374,0,0,1,.945.012,16.41,16.41,0,0,1,1.759.311l.1.025a.173.173,0,0,0,.184-.07,2,2,0,0,0,.138-.223q1.915-3.387,3.922-6.72a1.316,1.316,0,0,0,.109-.235.093.093,0,0,0-.047-.077.918.918,0,0,0-.206-.019c-.6,0-1.192.024-1.788.01a6.254,6.254,0,0,1-1.809-.3c-.033-.011-.069-.016-.1-.029a14.358,14.358,0,0,1-1.971-.987,2.525,2.525,0,0,1-1-1.119c-.124-.271-.258-.537-.4-.8a3.286,3.286,0,0,1-.392-1.512c0-.123-.009-.245-.007-.368a1.742,1.742,0,0,1,.271-1.1,3.145,3.145,0,0,0,.264-.57,2.228,2.228,0,0,0,.027-.575,3.28,3.28,0,0,1,.121-.883.955.955,0,0,1,.705-.706,1.087,1.087,0,0,1,1.033.2,5.234,5.234,0,0,0,1.17.7,2.977,2.977,0,0,0,1.068.251,13.579,13.579,0,0,0,1.786-.035c1.014-.088,2.013-.272,3.015-.441,1.054-.178,2.107-.36,3.163-.517a11.4,11.4,0,0,1,1.464-.151c.228,0,.455-.023.682-.041a18.693,18.693,0,0,1,2.89.02,4.457,4.457,0,0,1,2.414.936,1.225,1.225,0,0,1,.444.859,1.622,1.622,0,0,1-.168.6l-.084.134a.106.106,0,0,0,.01.142,1.568,1.568,0,0,1,.518.71c.084.173.178.342.253.52a.276.276,0,0,1,0,.2c-.141.3-.291.6-.442.9a.39.39,0,0,1-.183.182c-.1.045-.187.1-.282.14a3.719,3.719,0,0,0-1.026.723,10.12,10.12,0,0,0-.89.966,34.633,34.633,0,0,0-2.121,2.942c-1.091,1.675-2.1,3.4-3.1,5.128-.525.911-1.041,1.827-1.56,2.742-.052.091-.1.186-.143.28a.1.1,0,0,0,.063.124c.066.023.135.039.2.065a1.037,1.037,0,0,1,.662,1.225c-.046.221-.115.437-.176.664a.587.587,0,0,0,.105.11.626.626,0,0,1,.236.273c.094.188.194.372.293.557a.1.1,0,0,0,.17-.016c.074-.14.145-.28.217-.42a18.3,18.3,0,0,1,1.773-2.793,11.051,11.051,0,0,1,2.441-2.373q.388-.272.773-.546a.185.185,0,0,0,.062-.232c-.019-.049-.042-.1-.063-.144a1.517,1.517,0,0,1,.064-1.367c.112-.218.213-.442.329-.658a.659.659,0,0,0,.084-.454,2.691,2.691,0,0,1,.158-1.291.975.975,0,0,1,.378-.494.233.233,0,0,0,.088-.279,1.122,1.122,0,0,1,.127-.908c.154-.295.328-.58.506-.86a17.567,17.567,0,0,1,2.51-3.166,15.264,15.264,0,0,1,1.222-1.078,21.413,21.413,0,0,1,3.231-2.157,15.079,15.079,0,0,1,4.045-1.438,10.684,10.684,0,0,1,2.508-.213,6.82,6.82,0,0,1,1.4.19c.2.05.41.091.614.144a5.072,5.072,0,0,1,2.229,1.238,4.226,4.226,0,0,1,1.237,2.041,8.089,8.089,0,0,1,.282,1.5.766.766,0,0,0,.073.3,1.094,1.094,0,0,1,.091.512q0,1.841,0,3.682a1.493,1.493,0,0,1-.1.564c-.091.228-.178.457-.28.68-.428.941-.887,1.868-1.4,2.767a9.075,9.075,0,0,1-1.415,1.888,7.594,7.594,0,0,1-1.391,1.116c-.506.317-1.034.59-1.566.859a1.291,1.291,0,0,0-.4.238,1.132,1.132,0,0,0,.129.812,3.939,3.939,0,0,1,.4,1.406,4.742,4.742,0,0,1-.1,1.411,7.919,7.919,0,0,1-.571,1.745,28.7,28.7,0,0,1-2.88,5.063,17.018,17.018,0,0,1-4.219,4.142,13.827,13.827,0,0,1-1.209.742c-.57.308-1.153.593-1.738.87-.332.157-.682.274-1.022.413a1.316,1.316,0,0,1-.514.089c-.526,0-1.052,0-1.578,0-.894,0-1.788,0-2.682,0a1.512,1.512,0,0,1-.708-.157c-.5-.251-1.01-.488-1.5-.754A4.922,4.922,0,0,1,928.4,302.8c-.218-.42-.428-.844-.634-1.269a5.753,5.753,0,0,1-.511-1.7,6.593,6.593,0,0,1,.3-3.369,8.175,8.175,0,0,0,.348-1.372c.02-.138.062-.273.089-.41a.287.287,0,0,0-.018-.1c-.03.008-.073,0-.089.024a2.881,2.881,0,0,1-1.056.763c-.191.088-.38.18-.565.28a3.7,3.7,0,0,1-1.4.4,7.387,7.387,0,0,1-1.416.058.41.41,0,0,0-.426.234c-.125.211-.265.413-.4.618-.8,1.217-1.613,2.422-2.487,3.586a22.439,22.439,0,0,1-2.2,2.541,11.139,11.139,0,0,1-1.271,1.1,8.509,8.509,0,0,1-.922.6c-.585.316-1.187.6-1.781.9a1.293,1.293,0,0,1-.609.13q-.973-.011-1.946,0a1.159,1.159,0,0,1-.556-.127c-.375-.191-.751-.379-1.126-.568a.476.476,0,0,1-.232-.2C909.321,304.586,909.143,304.264,908.993,303.892Zm19.231-28.165-.013-.01a.211.211,0,0,1-.066.188c-.264.328-.531.652-.789.985a46.227,46.227,0,0,0-3.067,4.523q-2.033,3.378-3.961,6.818-.116.206-.237.409a.172.172,0,0,1-.178.084c-.1-.025-.2-.048-.306-.078a14.135,14.135,0,0,0-1.486-.331,6.748,6.748,0,0,0-1.78-.074,3.258,3.258,0,0,0-1.112.293,3.383,3.383,0,0,0-1.863,2.52.1.1,0,0,0,.122.117,3.94,3.94,0,0,1,1.913-.207c.331.036.663.067.991.121.639.1,1.276.223,1.914.337a.143.143,0,0,1,.1.2c-.032.063-.064.125-.1.185-.863,1.464-1.719,2.933-2.594,4.39a31.479,31.479,0,0,1-2.039,3,14.254,14.254,0,0,1-1.316,1.5,3.972,3.972,0,0,1-1.474.983c-.037.013-.062.057-.112.1a3.2,3.2,0,0,0,1.946.4,4.239,4.239,0,0,0,1.112-.3,7.737,7.737,0,0,0,1.553-.877,12.292,12.292,0,0,0,1.4-1.191,23.459,23.459,0,0,0,2.584-3.042c.957-1.32,1.866-2.673,2.739-4.049.085-.133.17-.266.253-.4a.282.282,0,0,1,.308-.146,9.565,9.565,0,0,0,1.732.055,5.32,5.32,0,0,0,1.243-.194,2.02,2.02,0,0,0,1.331-1.106c.038-.078.067-.161.1-.243a.1.1,0,0,0-.094-.142.772.772,0,0,0-.1.009,2.465,2.465,0,0,1-.992,0,13.066,13.066,0,0,1-1.932-.493.564.564,0,0,1-.132-.1c.079-.141.153-.279.233-.414q1.632-2.73,3.19-5.5c.983-1.739,1.992-3.463,3.046-5.16.684-1.1,1.4-2.185,2.186-3.217.34-.446.692-.884,1.063-1.3a5.044,5.044,0,0,1,1.685-1.319c.041-.019.065-.075.107-.126a3.244,3.244,0,0,0-1.9-.688c-.929-.019-1.857-.029-2.787,0a19.946,19.946,0,0,0-2.456.25q-2.205.351-4.406.73a14.965,14.965,0,0,1-3.2.185,4.063,4.063,0,0,1-.521-.059,4.816,4.816,0,0,1-1.79-.724c-.132-.086-.26-.179-.39-.268s-.193-.06-.212.08a4.425,4.425,0,0,0,.036,1.31,2.417,2.417,0,0,0,.929,1.6,4.031,4.031,0,0,0,.619.4,4.334,4.334,0,0,0,1.19.4,10.354,10.354,0,0,0,2.408.153c.542-.028,1.084-.063,1.624-.132,1.043-.133,2.086-.262,3.126-.415A1.409,1.409,0,0,1,928.224,275.728Zm9.592,9.731c-.094.04-.188.085-.286.121a15.3,15.3,0,0,0-3.677,2.012,10.184,10.184,0,0,0-1.772,1.639,15.849,15.849,0,0,0-2.6,4.3,10.646,10.646,0,0,0-.369,1.095,6.825,6.825,0,0,0-.052,3.687,5.1,5.1,0,0,0,2.885,3.48,6,6,0,0,0,1.918.527,7.781,7.781,0,0,0,2.509-.144,10.63,10.63,0,0,0,3.336-1.374,16.391,16.391,0,0,0,3.719-3.15,23.237,23.237,0,0,0,3.094-4.621,11.9,11.9,0,0,0,.5-1.1,7.676,7.676,0,0,0,.489-1.823,3.92,3.92,0,0,0-.742-2.929,4.471,4.471,0,0,0-.44-.522c-.341-.343-.265-.338.134-.482.049-.018.1-.031.15-.049a15.6,15.6,0,0,0,2.841-1.356,7.788,7.788,0,0,0,2-1.766,9.034,9.034,0,0,0,.725-1.032,16.238,16.238,0,0,0,1.136-2.25,8.975,8.975,0,0,0,.619-2.275,5.024,5.024,0,0,0-.3-2.427,3.372,3.372,0,0,0-1.248-1.589,4.89,4.89,0,0,0-1.722-.756,8.49,8.49,0,0,0-3.395-.059,13.255,13.255,0,0,0-3.581,1.179,18.767,18.767,0,0,0-3.362,2.145,15.823,15.823,0,0,0-3.97,4.651.445.445,0,0,0-.09.25.278.278,0,0,0,.241.023c.326-.066.651-.138.977-.2.893-.179,1.79-.339,2.678-.541.586-.133.428-.035.823-.493q.172-.2.346-.4a20.186,20.186,0,0,1,3.213-2.944,13.1,13.1,0,0,1,1.83-1.135,8.441,8.441,0,0,1,1.312-.536,3.558,3.558,0,0,1,1.452-.17,1.309,1.309,0,0,1,1.164.924,1.808,1.808,0,0,1,.112.565,5.147,5.147,0,0,1-.053.943,8.471,8.471,0,0,1-.42,1.572,19.368,19.368,0,0,1-1.149,2.478,4.75,4.75,0,0,1-2.644,2.282,24.022,24.022,0,0,1-2.308.714c-.424.108-.852.2-1.278.3a.831.831,0,0,1-.609-.075c-.324-.174-.664-.318-.989-.489a4.529,4.529,0,0,1-.577-.363,2.195,2.195,0,0,1-.38-.36,1.117,1.117,0,0,1-.236-1.174c.037-.1.064-.2.1-.3-.036-.021-.065-.053-.092-.052a2.234,2.234,0,0,0-.313.029c-.621.111-1.231.268-1.839.438-.59.165-1.186.311-1.78.46a.27.27,0,0,0-.209.21,1.4,1.4,0,0,0,.306,1.374,5.076,5.076,0,0,0,.541.5,9.568,9.568,0,0,0,1.078.751,2.536,2.536,0,0,1,.256.179C937.826,285.37,937.815,285.419,937.817,285.459Zm4.294-2.543a.35.35,0,0,0,.049.1.439.439,0,0,0,.338.114,2.155,2.155,0,0,0,.31-.055,23.349,23.349,0,0,0,2.916-.87,5.563,5.563,0,0,0,.667-.307,3.305,3.305,0,0,0,1.3-1.264,18.222,18.222,0,0,0,.983-1.974,1.068,1.068,0,0,0,.054-.2.148.148,0,0,0-.143-.177,4.625,4.625,0,0,0-2.022.678c-.293.191-.588.381-.872.586a20.171,20.171,0,0,0-3.428,3.167C942.211,282.782,942.16,282.852,942.111,282.916Z" transform="translate(-887.691 -271.104)" fill="#131627"/>
      <path id="Path_18605" data-name="Path 18605" d="M787.384,306.707c-.543,0-1.087,0-1.63,0a1.368,1.368,0,0,1-.562-.108c-.129-.055-.261-.1-.386-.165-.425-.208-.849-.415-1.27-.631a3.926,3.926,0,0,1-1.8-1.845c-.173-.364-.358-.722-.541-1.081a1.182,1.182,0,0,1-.131-.555q.006-2.13,0-4.26a.773.773,0,0,1,.08-.407,1.664,1.664,0,0,0,.184-.654,15.463,15.463,0,0,1,.343-1.591,1.21,1.21,0,0,1,.823-.883,2.663,2.663,0,0,1,.664-.154,1.7,1.7,0,0,1,1.1.273,5.342,5.342,0,0,1,.827.647,4.214,4.214,0,0,0,.352.315.289.289,0,0,0,.193.058,2.471,2.471,0,0,1,.628,0,.1.1,0,0,0,.081-.041c.013-.025,0-.065,0-.1a.149.149,0,0,0-.023-.047c-.337-.555-.609-1.145-.9-1.724a8.678,8.678,0,0,1-.615-1.619,2.5,2.5,0,0,1-.093-.673c0-.631,0-1.262,0-1.893,0-.754,0-1.508,0-2.262a2.54,2.54,0,0,1,.088-.728c.064-.218.093-.448.168-.662a15.494,15.494,0,0,0,.473-1.829,14.842,14.842,0,0,1,1.166-3.313,18.862,18.862,0,0,1,2.518-3.93,13.468,13.468,0,0,1,5.551-3.95,11.343,11.343,0,0,1,2.75-.669,8.364,8.364,0,0,1,3.181.221c.254.068.511.126.759.212a6.578,6.578,0,0,1,3.116,2.234,6.789,6.789,0,0,1,1.261,2.634c.092.392.169.788.24,1.184a3.1,3.1,0,0,0,.157.555,8.815,8.815,0,0,1,.481,2.094,11.128,11.128,0,0,1-.383,4.215,19.756,19.756,0,0,1-1.057,2.967,52.353,52.353,0,0,1-4.208,7.812,46.107,46.107,0,0,1-3.358,4.511,22.92,22.92,0,0,1-3.337,3.2,14.612,14.612,0,0,1-2.532,1.592c-.378.185-.754.371-1.133.554a9.626,9.626,0,0,1-1.022.413,1.512,1.512,0,0,1-.514.087C788.506,306.7,787.945,306.707,787.384,306.707Zm-1.55-9.868c-.119-.075-.239-.008-.357-.011a.679.679,0,0,1-.4-.115c-.128-.092-.258-.183-.377-.285-.146-.125-.284-.261-.425-.392a3.927,3.927,0,0,0-.622-.482.694.694,0,0,0-.5-.095,1.78,1.78,0,0,0-.3.1.236.236,0,0,0-.141.147c-.036.1-.07.2-.1.3a11.105,11.105,0,0,0-.255,1.394,6.368,6.368,0,0,0,.152,2.348,4.062,4.062,0,0,0,2.579,2.968,5.967,5.967,0,0,0,1.735.4,6.417,6.417,0,0,0,1.52-.043,8.577,8.577,0,0,0,2.295-.731,13.339,13.339,0,0,0,2.409-1.492,22.611,22.611,0,0,0,3.527-3.375,47.182,47.182,0,0,0,3.744-5.139,42.554,42.554,0,0,0,3.06-5.689,21.266,21.266,0,0,0,1.273-3.614,11.653,11.653,0,0,0,.359-2.861,11.03,11.03,0,0,0-.114-1.362,7.276,7.276,0,0,0-.514-1.924,5.586,5.586,0,0,0-3.27-3.158,7.58,7.58,0,0,0-3.359-.446,10.139,10.139,0,0,0-3.334.89,12.713,12.713,0,0,0-5.049,4.093,19,19,0,0,0-1.942,3.3,13.437,13.437,0,0,0-1.28,5.063,11.588,11.588,0,0,0,.148,2.618,8.083,8.083,0,0,0,1.26,3.149,6.8,6.8,0,0,0,5.535,3.052c.157,0,.314.012.471.026.014,0,.041.066.031.085a1.407,1.407,0,0,1-.143.218c-.573.71-1.161,1.406-1.8,2.059-.355.363-.72.719-1.094,1.062a11.086,11.086,0,0,1-2.178,1.553,5.574,5.574,0,0,1-1.258.523,2.21,2.21,0,0,1-.887.048,1.1,1.1,0,0,1-.814-.521,1.979,1.979,0,0,1-.189-.43,2.6,2.6,0,0,1-.05-1.249,6.871,6.871,0,0,1,.509-1.6A.891.891,0,0,0,785.834,296.839Zm.929.746a1.082,1.082,0,0,1,.463.532c.094.187.183.378.281.563a.4.4,0,0,1,.014.4c-.078.156-.146.318-.217.477-.021.047-.043.1-.006.144s.092.026.139,0a9.056,9.056,0,0,0,1.988-1.259.853.853,0,0,0,.069-.078.1.1,0,0,0-.032-.134c-.137-.077-.272-.158-.412-.227a6.322,6.322,0,0,1-1.264-.84c-.187-.157-.361-.331-.54-.5-.051-.047-.1-.1-.18-.1-.039.165-.07.334-.118.5S786.831,297.4,786.763,297.586Z" transform="translate(-779.861 -272)" fill="#131627"/>
      <path id="Path_18606" data-name="Path 18606" d="M1098.809,592.99c.43.012.833.023,1.235.037.029,0,.057.029.085.047s.014.093-.033.137l-.116.107c-.052.047-.1.093-.158.138a19.679,19.679,0,0,0-2.375,2.449c-.29.351-.582.7-.862,1.06-.42.539-.883,1.042-1.323,1.564-1.245,1.473-2.4,3.017-3.523,4.581-.451.625-.9,1.249-1.383,1.852a2.235,2.235,0,0,1-.362.378,7.585,7.585,0,0,0-2.146,2.815,7.262,7.262,0,0,0-.423,1.13.626.626,0,0,1-.18.313,8.045,8.045,0,0,1-1.792,1.276,5.366,5.366,0,0,1-.532.223.466.466,0,0,1-.2.005c-.024,0-.067-.05-.062-.069.065-.29.129-.581.208-.867a9.922,9.922,0,0,1,.506-1.323q.528-1.2,1.156-2.357c.419-.769.838-1.537,1.276-2.3,1.156-2,2.345-3.984,3.591-5.932q1-1.571,2.005-3.145.435-.688.848-1.39a.517.517,0,0,1,.37-.263c.447-.083.894-.175,1.344-.238q.806-.113,1.618-.181C1097.994,593.007,1098.416,593.005,1098.809,592.99Z" transform="translate(-1035.745 -542.405)" fill="#131627"/>
      <path id="Path_18607" data-name="Path 18607" d="M984.22,629.759a1.465,1.465,0,0,1-.5-.151,1.683,1.683,0,0,0-.778-.065.209.209,0,0,0-.1.028.562.562,0,0,0-.094.121.074.074,0,0,0,0,.051,1.554,1.554,0,0,1-.122.922c-.161.407-.31.819-.486,1.22-.211.481-.447.951-.668,1.428a3.039,3.039,0,0,1-.356.581,31.4,31.4,0,0,1-3.057,3.47c-.4.389-.826.759-1.247,1.13a5.292,5.292,0,0,1-.808.585,2.069,2.069,0,0,1-1,.287,1.458,1.458,0,0,1-.313-.025.645.645,0,0,1-.512-.474,1.49,1.49,0,0,1-.047-.573,7.152,7.152,0,0,1,.286-1.548,7.784,7.784,0,0,1,.411-1.08,24.411,24.411,0,0,1,3.768-5.8,13.3,13.3,0,0,1,2.043-1.889,5.868,5.868,0,0,1,1.173-.7,3.423,3.423,0,0,1,1.219-.294,2.778,2.778,0,0,1,.367.008.944.944,0,0,1,.844.687,1.853,1.853,0,0,1,.114.618c0,.14,0,.281-.006.421-.021.3-.049.593-.078.889A.83.83,0,0,1,984.22,629.759Zm-6.9,6.722c.134-.02.2-.13.286-.214A34.269,34.269,0,0,0,980,633.561a5.152,5.152,0,0,0,.751-1.31c.009-.021-.019-.058-.034-.085a.093.093,0,0,0-.047.017c-.08.067-.162.132-.236.2a20.967,20.967,0,0,0-3.028,3.866.691.691,0,0,0-.07.14.349.349,0,0,0,0,.1l-.026,0Z" transform="translate(-942.58 -571.057)" fill="#131627"/>
      <path id="Path_18608" data-name="Path 18608" d="M1122.019,658.369a7.082,7.082,0,0,1,.6-.8c.015-.017.057-.014.087-.014.006,0,.02.032.017.047-.043.241-.082.483-.134.722a15.168,15.168,0,0,0-.258,2.085c-.079,1.031-.15,2.062-.235,3.093a4.667,4.667,0,0,1-.532,1.8,3.172,3.172,0,0,1-.711.9,1.53,1.53,0,0,1-1.472.334,2.459,2.459,0,0,1-.678-.28,1.412,1.412,0,0,1-.713-1.048c-.007-.052-.014-.1-.024-.156a1.066,1.066,0,0,1,.155-.807,2.626,2.626,0,0,1,1.647-1.215,1.2,1.2,0,0,1,.365-.024.818.818,0,0,1,.6.291c.056.067.109.136.165.2.024.029.112.018.141-.012a1.5,1.5,0,0,0,.337-.7,6.6,6.6,0,0,0,.2-1.349,9.256,9.256,0,0,0-.033-1.47.556.556,0,0,1,.12-.44c.119-.152.224-.314.342-.466a.492.492,0,0,0,.088-.446C1122.071,658.54,1122.045,658.458,1122.019,658.369Z" transform="translate(-1063.805 -596.825)" fill="#131627"/>
      <path id="Path_18609" data-name="Path 18609" d="M1042.353,647.247l.028.022c.005-.038,0-.037-.023,0A.213.213,0,0,1,1042.353,647.247Z" transform="translate(-1000.094 -588.131)"/>
      <path id="Path_18610" data-name="Path 18610" d="M1054.384,385.42a7.232,7.232,0,0,1,.5-2.268,17.913,17.913,0,0,1,1.461-3.022,8.143,8.143,0,0,1,2.653-2.65,11.952,11.952,0,0,1,2.4-1.169c.839-.306,1.7-.551,2.552-.8a.456.456,0,0,1,.154-.027.381.381,0,0,1,.2.045,4.872,4.872,0,0,1,1.193,1.246,2.923,2.923,0,0,1,.437,2.009,4.5,4.5,0,0,1-.264,1.014,5.838,5.838,0,0,1-.257.575,21.04,21.04,0,0,1-2.758,4.146,16.183,16.183,0,0,1-2.07,2.011,9.5,9.5,0,0,1-2.09,1.3,5.74,5.74,0,0,1-1.452.44,2.889,2.889,0,0,1-1.147-.04,1.823,1.823,0,0,1-1.235-.977,2.13,2.13,0,0,1-.216-.645A4.683,4.683,0,0,1,1054.384,385.42Zm9.416-6c-.062.015-.147.03-.23.054-.756.219-1.506.453-2.249.715a6.468,6.468,0,0,0-1.659.888,8.093,8.093,0,0,0-2.271,2.446,10.7,10.7,0,0,0-1.241,3.219,2.564,2.564,0,0,0-.031.312.149.149,0,0,0,.089.114,1.765,1.765,0,0,0,.259.037,2.992,2.992,0,0,0,1.132-.184,8.374,8.374,0,0,0,2.1-1.176,15,15,0,0,0,1.182-1.041,17.912,17.912,0,0,0,3.283-4.4.616.616,0,0,0-.068-.73A.657.657,0,0,0,1063.8,379.416Z" transform="translate(-1010.222 -359.076)" fill="#131627"/>
      <path id="Path_18611" data-name="Path 18611" d="M1031.3,300.387v-.026l-.014.017Z" transform="translate(-990.766 -295.763)"/>
      <path id="Path_18612" data-name="Path 18612" d="M841.226,314.22c-.109.011-.213.029-.317.03-.42,0-.841.014-1.261,0a5.938,5.938,0,0,1-1.7-.311,4.363,4.363,0,0,1-.486-.2,3.949,3.949,0,0,1-2.267-2.91,6.723,6.723,0,0,1-.05-2.248,13,13,0,0,1,1.041-3.567,20.773,20.773,0,0,1,1.871-3.342,10.608,10.608,0,0,1,3.092-3.033,7.732,7.732,0,0,1,1.5-.753,4.489,4.489,0,0,1,2.013-.271,2.775,2.775,0,0,1,1.44.585,2.222,2.222,0,0,1,.682.917,3.919,3.919,0,0,1,.293,1.274,8.044,8.044,0,0,1-.15,2.143,19.716,19.716,0,0,1-.843,2.869,27.6,27.6,0,0,1-1.589,3.486c-.769,1.437-1.621,2.825-2.51,4.19-.2.308-.4.62-.6.928C841.342,314.083,841.283,314.148,841.226,314.22Zm4.2-11.075h.011c-.015-.262-.022-.526-.047-.787a3.122,3.122,0,0,0-.088-.464.507.507,0,0,0-.387-.385,2.7,2.7,0,0,0-1.044-.059,5.666,5.666,0,0,0-.976.2,2.9,2.9,0,0,0-.756.358,10.561,10.561,0,0,0-1.989,1.708,16.751,16.751,0,0,0-2.2,3.26c-.017.03-.027.065-.041.1a13.726,13.726,0,0,0-.995,3.039,7.328,7.328,0,0,0-.162,1.513.5.5,0,0,0,.126.335,3.4,3.4,0,0,0,2.031,1.116,8.782,8.782,0,0,0,.993.1c.174.013.35,0,.525,0a.3.3,0,0,0,.27-.133c.06-.086.122-.171.179-.259.79-1.2,1.55-2.419,2.251-3.674a30.553,30.553,0,0,0,1.992-4.226,4.5,4.5,0,0,0,.306-1.588Z" transform="translate(-825.39 -293.433)" fill="#131627"/>
      <path id="Path_18613" data-name="Path 18613" d="M994.43,687.415l-.014.017.026,0Z" transform="translate(-959.69 -621.991)" fill="#fff"/>
    </g>
  </g>
</svg>
