<svg xmlns="http://www.w3.org/2000/svg" width="45.574" height="54.699" viewBox="0 0 45.574 54.699">
  <g id="_211891_apple_social_icon" data-name="211891_apple_social_icon" transform="translate(0)">
    <path id="Path_18858" data-name="Path 18858" d="M129.816,156.179a10.219,10.219,0,0,1,6.75,2.905,13.913,13.913,0,0,0-3.375,4.3,14.38,14.38,0,0,0-1.453,7.5,14.909,14.909,0,0,0,2.563,7.377,13.886,13.886,0,0,0,4.272,4.03,35.869,35.869,0,0,1-2.392,4.343c-1.2,1.866-4.343,6.836-7.405,6.864h-.057a5.81,5.81,0,0,1-2.748-.8,13.016,13.016,0,0,0-6.18-1.51H119.7a13.575,13.575,0,0,0-6.252,1.51,6.2,6.2,0,0,1-2.834.812h-.057c-2.791-.029-5.34-3.461-7.234-6.437a32.738,32.738,0,0,1-4.97-14.113c-.413-4.343.285-8.331,1.923-10.923a13.608,13.608,0,0,1,4.329-4.358,9.482,9.482,0,0,1,4.87-1.481,13.594,13.594,0,0,1,4.8,1.111,15.226,15.226,0,0,0,5.369,1.225,12.993,12.993,0,0,0,4.927-1.168,13.037,13.037,0,0,1,5.241-1.2m0-2.279c-4.785,0-6.807,2.35-10.139,2.35-3.418,0-6.024-2.335-10.168-2.335-4.059,0-8.388,2.549-11.136,6.893-3.859,6.124-3.2,17.659,3.048,27.485,2.236,3.517,5.226,7.462,9.143,7.5h.071c3.4,0,4.415-2.293,9.1-2.321h.071c4.614,0,5.54,2.307,8.929,2.307h.071c3.916-.043,7.063-4.415,9.3-7.918a38.951,38.951,0,0,0,3.446-6.636c-9.043-3.532-10.5-16.719-1.552-21.774-2.734-3.517-6.565-5.554-10.182-5.554Z" transform="translate(-95.977 -141.098)" fill="#fff"/>
    <path id="Path_18859" data-name="Path 18859" d="M258.288,66.919a11.227,11.227,0,0,1-2.079,4.586,8.913,8.913,0,0,1-4.1,3,7.738,7.738,0,0,1,.342-1.31,11.244,11.244,0,0,1,1.823-3.29,10.9,10.9,0,0,1,4.016-2.991M260.61,64a12.454,12.454,0,0,0-8.117,4.5c-1.766,2.207-3.218,5.483-2.649,8.658h.228a10.571,10.571,0,0,0,7.946-4.286A12.129,12.129,0,0,0,260.61,64Z" transform="translate(-227.824 -64)" fill="#fff"/>
  </g>
</svg>
