<svg id="delivery-man" xmlns="http://www.w3.org/2000/svg" width="106.971" height="101.121" viewBox="0 0 106.971 101.121">
  <path id="Path_18848" data-name="Path 18848" d="M101.294,44.08H83.154a5.685,5.685,0,0,0-5.677,5.68V70.64H70.692a15.586,15.586,0,0,0,.425-4.869h0c-.147-7.952-1.59-14.653-4.289-19.919a21.373,21.373,0,0,0-6.64-8,14.53,14.53,0,0,0,3.887-10.29,13.3,13.3,0,1,0-26.587,0,1.567,1.567,0,0,0,1.567,1.567h1.065a11.033,11.033,0,0,0-.15,1.806,10.88,10.88,0,0,0,8.742,10.658,26.41,26.41,0,0,0-.78,6.816l-3.908,3.361-9.509.769L23.545,48.909c-1.005-.334-2.145-.712-3.134,0a2.783,2.783,0,0,0-.974,2.338V59.4A1.567,1.567,0,0,0,21,60.971H22.87l-2.861,9.887a1.567,1.567,0,0,0,3.011.871l3.113-10.759h4.455c-5.541,16.9-2.379,28.175,2.48,39.589H30.251L18.519,87.442,21,78.871A1.567,1.567,0,0,0,17.989,78l-2.373,8.2A15.762,15.762,0,0,0,.04,98.415a1.567,1.567,0,0,0,1.176,1.878l2.224.512a11.989,11.989,0,0,0,23.17,5.332l1.755.4a2.046,2.046,0,0,0,1.515-.085,1.8,1.8,0,0,0,.883-1.2,15.587,15.587,0,0,0,.253-1.56H63.787a13.353,13.353,0,0,0,26.426,0h1.2l.291,0a2.146,2.146,0,0,0,1.627-.59,2.009,2.009,0,0,0,.554-1.524,17.763,17.763,0,0,0-.642-4.245c1.248-7.577.047-12.192-1.733-15.8a4.125,4.125,0,0,0,1.872-3.453V73.774h7.915a5.685,5.685,0,0,0,5.677-5.68V49.761a5.684,5.684,0,0,0-5.677-5.68Zm-81.22,65.381a8.789,8.789,0,0,1-6.683,1.126h0a8.879,8.879,0,0,1-6.864-9.07l17,3.912a8.809,8.809,0,0,1-3.449,4.031Zm7.841-6.24L3.54,97.612a12.619,12.619,0,0,1,12.476-8.267L27.957,102.7Q27.941,102.96,27.915,103.221ZM51.583,75.915a13.951,13.951,0,0,0-.455,4.726v5.913H45.391V78.442c0-9.172,5.006-10.806,7.252-11.076H68a6.643,6.643,0,0,1-1.423,4.5c-1.039,1.094-2.817,1.628-5.437,1.63l-5.625.006c-2.006,0-3.33.812-3.937,2.413Zm-.455,13.773V93.43H39.954a4.465,4.465,0,0,1,1.08-2.68,3.866,3.866,0,0,1,2.789-1.062ZM67.936,64.233H53.685a58.514,58.514,0,0,1-1.5-5.8l4.333-2.812c2.365-1.536,3.6-3.706,3.376-5.954a5.54,5.54,0,0,0-3.452-4.535,5.656,5.656,0,0,0-5.259.579,18.5,18.5,0,0,1,.757-3.973,11.046,11.046,0,0,0,1.983-.391,12.981,12.981,0,0,0,3.658-1.45c3.018,1.8,9.656,7.651,10.358,24.335Zm-27.2-38.242a10.145,10.145,0,0,1,20.2,1.567c0,4.675-2.242,8.442-5.856,10.1V29.413A3.118,3.118,0,0,0,51.937,26q-.071-.007-.142-.006ZM43.1,30.93a7.8,7.8,0,0,1,.209-1.806h8.4c.1.01.167.022.218.032a1.863,1.863,0,0,1,.015.256V38.58a7.751,7.751,0,0,1-1.124.083h-.01A7.735,7.735,0,0,1,43.1,30.93ZM41.073,55.149l3.711-.3a1.568,1.568,0,0,0,.9-.374l6.7-5.761h0a3.112,3.112,0,0,1,2.012-.844,2.412,2.412,0,0,1,2.381,2.1c.1,1.059-.594,2.132-1.963,3.021l-7.464,4.845H41.074V55.149Zm-6.622.536,3.488-.282v2.434H33.886c-.525,0-.654-.437-.669-.8A1.244,1.244,0,0,1,34.451,55.685ZM30.742,54.6a4.526,4.526,0,0,0-.577,3.221s0,.009,0,.013H22.572V51.888l8.177,2.7-.006.012Zm3.152,6.368H47.809a1.567,1.567,0,0,0,.853-.253l.709-.46c.341,1.508.73,2.976,1.153,4.362-3.2.943-8.268,3.992-8.268,13.822v8.27a6.54,6.54,0,0,0-3.488,1.873,7.643,7.643,0,0,0-1.959,4.845H33.649c-3.185-9.18-4.4-18.949.246-32.458Zm2.583,39.583c-.579-1.332-1.137-2.659-1.663-3.991h16.27c2.109,0,3.178-.96,3.178-2.853v-11.5H66.631a1.567,1.567,0,0,0,0-3.134H54.273a7.093,7.093,0,0,1,.24-2.048c.079-.209.148-.39,1.008-.39l5.626-.006c3.524,0,6.044-.856,7.706-2.606.077-.081.15-.166.223-.251H90.246V78.08a1.006,1.006,0,0,1-.991.994h-15.6a1.567,1.567,0,0,0,0,3.134H88.334a18.5,18.5,0,0,1,2.286,9.679,17.005,17.005,0,0,0-25.9-2.023,17.262,17.262,0,0,0-4.926,10.7ZM77,111.988a10.325,10.325,0,0,1-10.029-8.294H87.03A10.326,10.326,0,0,1,77,111.988ZM88.81,100.56H62.94A14.055,14.055,0,0,1,76.805,87.945,13.9,13.9,0,0,1,90.14,97.909c.006.018.011.037.018.055a14.465,14.465,0,0,1,.517,2.6Zm15.027-32.467a2.548,2.548,0,0,1-2.543,2.546H80.611V62.548h23.227Zm0-8.68H80.611V56.081h23.227Zm0-6.467H80.611V49.761a2.548,2.548,0,0,1,2.543-2.546h18.14a2.548,2.548,0,0,1,2.543,2.546Z" transform="translate(0 -14)" fill="#fff"/>
</svg>
