<svg id="customer-service" xmlns="http://www.w3.org/2000/svg" width="76.665" height="90.366" viewBox="0 0 76.665 90.366">
  <path id="Path_18849" data-name="Path 18849" d="M321.015,155.982a1.324,1.324,0,0,0,1.324-1.324v-1.738a1.324,1.324,0,1,0-2.648,0v1.738A1.324,1.324,0,0,0,321.015,155.982Z" transform="translate(-270.113 -124.839)" fill="#fff"/>
  <path id="Path_18850" data-name="Path 18850" d="M256.4,155.982a1.324,1.324,0,0,0,1.324-1.324v-1.738a1.324,1.324,0,1,0-2.648,0v1.738A1.324,1.324,0,0,0,256.4,155.982Z" transform="translate(-216.9 -124.839)" fill="#fff"/>
  <path id="Path_18851" data-name="Path 18851" d="M273.144,208.191a4.649,4.649,0,0,0,4.644-4.644,1.324,1.324,0,1,0-2.648,0,2,2,0,1,1-3.992,0,1.324,1.324,0,1,0-2.648,0A4.649,4.649,0,0,0,273.144,208.191Z" transform="translate(-227.957 -166.529)" fill="#fff"/>
  <path id="Path_18852" data-name="Path 18852" d="M114.151,70.987a1.324,1.324,0,0,0,1.324-1.324V65.558a8.718,8.718,0,0,0-6.039-8.309l-16.37-5.157V46.825A14.275,14.275,0,0,0,98.6,34.72c3.037.233,6.347-1.567,6.347-5.012V26.944a4.993,4.993,0,0,0-1.358-3.426c.017-.085.026-3.776.026-3.776a1.324,1.324,0,1,0-2.648,0v2.189H82.438a3.976,3.976,0,0,1-3.971-3.971V6.619a3.976,3.976,0,0,1,3.971-3.971h8.986a9.556,9.556,0,0,1,9.546,9.546v1.779a1.324,1.324,0,1,0,2.648,0V12.193A12.207,12.207,0,0,0,91.424,0H82.438a6.628,6.628,0,0,0-6.52,5.483H73.7a9.277,9.277,0,0,0-9.267,9.267s.007,8.649.018,8.718a5,5,0,0,0-1.407,3.477v2.764c0,3.392,3.294,5.273,6.347,5.012a14.074,14.074,0,0,0,5.537,12.1v5.319L63.017,56.6a6.624,6.624,0,0,0-2.924,2.161l-7.67,9.956V64.282a3.962,3.962,0,0,0-1.371-3V55.8a4.065,4.065,0,1,0-8.13,0v4.509c-2.788,0-4.112,1.564-4.112,3.971V75.436a3.978,3.978,0,0,0,2.741,3.775v4.543a6.685,6.685,0,0,0,12.181,3.731l7.009-8.468V89.042a1.324,1.324,0,0,0,1.324,1.324h52.086a1.324,1.324,0,0,0,1.324-1.324V75.433a1.324,1.324,0,1,0-2.648,0V87.719H104.51V70.154a1.324,1.324,0,0,0-2.648,0v1.072H63.389V69.859a1.324,1.324,0,0,0-2.648,0v5.006l-9.09,10.982c-2.167,2.616-7.453,2.695-7.453-2.093V79.407H48.4v1.418a1.324,1.324,0,0,0,2.648,0V78.434a3.963,3.963,0,0,0,1.372-3V73.051l9.767-12.678a3.979,3.979,0,0,1,1.755-1.3l12.09-4.519L83.2,59.95a1.386,1.386,0,0,0,1.677-.064l7.115-5.357,16.636,5.241a6.073,6.073,0,0,1,4.2,5.788v4.106a1.324,1.324,0,0,0,1.324,1.324Zm-12.289,2.886v8.37H79.136a1.324,1.324,0,1,0,0,2.648h22.727v2.828H63.389V84.891h9.978a1.324,1.324,0,0,0,0-2.648H63.389v-8.37ZM45.57,55.8a1.417,1.417,0,1,1,2.835,0v4.509H45.57Zm-4.112,8.48a1.325,1.325,0,0,1,1.324-1.324h5.67a1.325,1.325,0,0,1,1.324,1.324v1.511H45.617a1.324,1.324,0,0,0,0,2.648h4.159v2.835H45.617a1.324,1.324,0,0,0,0,2.648h4.159v1.511c0,.883-.535,1.264-1.323,1.323H42.782a1.325,1.325,0,0,1-1.324-1.324ZM102.3,29.708a2.367,2.367,0,0,1-2.365,2.365H98.6V24.579h1.334a2.367,2.367,0,0,1,2.365,2.365ZM67.08,14.75A6.627,6.627,0,0,1,73.7,8.13h2.12v9.83h0a3.976,3.976,0,0,1-3.971,3.971H67.08Zm.976,17.323a2.367,2.367,0,0,1-2.365-2.365V26.944a2.367,2.367,0,0,1,2.365-2.365H69.39v7.493H68.056Zm3.982,3.812V24.575a6.613,6.613,0,0,0,5.105-2.648,6.613,6.613,0,0,0,5.3,2.652H95.955V35.885c0,14.547-23.917,14.53-23.917,0Zm18.38,12.468V52.4L84,57.235,77.575,52.4V48.353c3.157,1.894,9.452,1.776,12.843,0Z" transform="translate(-38.81 0)" fill="#fff"/>
  <path id="Path_18853" data-name="Path 18853" d="M65.236,178.232a1.324,1.324,0,0,0,1.872,0l5.483-5.483a1.324,1.324,0,0,0-1.872-1.872l-4.547,4.547-1.805-1.806a1.324,1.324,0,0,0-1.872,1.872Z" transform="translate(-57.995 -140.396)" fill="#fff"/>
  <path id="Path_18854" data-name="Path 18854" d="M42.782,148.246H53.936a3.976,3.976,0,0,0,3.971-3.971v-1.511h4.159c1.4-.011,2.016-1.077.941-2.255l-5.1-5.159v-7.836a3.976,3.976,0,0,0-3.971-3.971H42.782a3.976,3.976,0,0,0-3.971,3.971v16.761A3.976,3.976,0,0,0,42.782,148.246Zm-1.324-20.733a1.325,1.325,0,0,1,1.324-1.324H53.936a1.325,1.325,0,0,1,1.324,1.324v8.381a1.323,1.323,0,0,0,.383.931l3.254,3.291H56.583a1.324,1.324,0,0,0-1.324,1.324v2.835a1.325,1.325,0,0,1-1.324,1.324H42.782a1.325,1.325,0,0,1-1.324-1.324Z" transform="translate(-38.811 -101.736)" fill="#fff"/>
</svg>
