<svg xmlns="http://www.w3.org/2000/svg" width="184.06" height="213.6" viewBox="0 0 184.06 213.6">
  <g id="Group_3709" data-name="Group 3709" transform="translate(-773.442 -271.104)">
    <path id="Path_18785" data-name="Path 18785" d="M789.8,595.19c-.083.025-.211.025-.241.079-.274.489-.532.988-.793,1.484a5.734,5.734,0,0,0-.313.627,3.264,3.264,0,0,1-1.818,1.848c-.807.37-1.586.8-2.386,1.188a6.021,6.021,0,0,1-3.693.507,7.883,7.883,0,0,1-2.4-.762q-1.244-.649-2.506-1.265a2.938,2.938,0,0,1-1.349-1.37,5.067,5.067,0,0,1-.861-3.464c0-2.575.007-5.15,0-7.725a4.976,4.976,0,0,1,.36-2.194,3.466,3.466,0,0,0,.233-.947,27.965,27.965,0,0,1,1.907-6.877,40.833,40.833,0,0,1,3.93-7.115,4.331,4.331,0,0,0,.75-1.221,4.842,4.842,0,0,0-.426-.328c-.4-.245-.823-.45-1.2-.718a6.193,6.193,0,0,1-2.189-2.508,3.936,3.936,0,0,0-.2-.372,19.773,19.773,0,0,1-2-5.81,14.093,14.093,0,0,1,.187-6.807c.241-.9.5-1.8.792-2.691a11.557,11.557,0,0,0,.438-1.767,29.378,29.378,0,0,1,.9-3.823,38.67,38.67,0,0,1,11.355-18.074,63.975,63.975,0,0,1,15.689-10.259,101.623,101.623,0,0,1,15.112-5.6q5.935-1.7,11.965-3.027c3.105-.685,6.225-1.307,9.367-1.814,2.032-.328,4.056-.7,6.09-1.016,1.664-.255,3.338-.452,5.009-.666,2.692-.344,5.383-.691,8.077-1.018,1.951-.237,3.906-.433,5.858-.667,2.741-.329,5.479-.683,8.219-1.016,2.044-.248,4.083-.521,6.115-.856a26.018,26.018,0,0,0,4.475-1.163c.484-.172.975-.324,1.47-.463a2.87,2.87,0,0,1,3.277,1.958,9.383,9.383,0,0,1,.221,2.784,2.419,2.419,0,0,0,.292,1.482,2.043,2.043,0,0,1,.241,1.081q-.008,3.722,0,7.444a3.969,3.969,0,0,1-.223,1.235,37.755,37.755,0,0,1-2.012,5.085c-.555,1.135-1.107,2.272-1.7,3.387-.439.825-.924,1.627-1.42,2.42a4.114,4.114,0,0,1-1.876,1.636c-.642.28-1.271.6-1.886.932a3.8,3.8,0,0,1-1.887.457c-.375,0-.749,0-1.124,0-2.762,0-5.525.013-8.287-.009a3.432,3.432,0,0,0-1.875.458c-.279.169-.589.287-.877.441a2.781,2.781,0,0,1-1.076.281c-2.562.246-5.122.51-7.684.764-2.235.222-4.474.417-6.706.663-2.325.257-4.645.562-6.967.847a.29.29,0,0,0-.236.408c.136.348.271.7.417,1.041a2.416,2.416,0,0,1-.092,2.159c-.874,1.708-1.724,3.428-2.69,5.087-.187.322-.347.66-.513.993a.144.144,0,0,0,.017.134c.068.051.159.124.229.113,1.063-.165,2.126-.329,3.185-.519q4.35-.78,8.7-1.581c1.7-.314,3.4-.644,5.1-.978a2.937,2.937,0,0,1,2.141.439,3.2,3.2,0,0,1,1.509,2.109,4.474,4.474,0,0,1,.1,2.084c-.077.316-.1.644-.149.976.463.924.916,1.848,1.387,2.761a2.873,2.873,0,0,1,.4,1.608.711.711,0,0,0,.085.258.634.634,0,0,0,.506-.177c.716-.527,1.431-1.057,2.159-1.568a36.194,36.194,0,0,1,6.462-3.659,26,26,0,0,1,8.554-2.053,12.594,12.594,0,0,1,3.076.216,29.892,29.892,0,0,1,3.136.751,8.19,8.19,0,0,1,4.29,3.009,9.941,9.941,0,0,1,1.836,3.905,17.3,17.3,0,0,1,.561,3.315,2.79,2.79,0,0,0,.32,1.21,14.056,14.056,0,0,1,1.224,7.663,27.439,27.439,0,0,1-.458,3.337,6.013,6.013,0,0,1-.535,1.589c-.322.623-.63,1.255-.935,1.887a4.531,4.531,0,0,0-.321.775.882.882,0,0,0,.024.541,18.759,18.759,0,0,0,1.05,2.121c.121-.074.226-.1.273-.174a3.616,3.616,0,0,0,.26-.492c1.888-4.08,3.98-8.054,6.207-11.958a8.257,8.257,0,0,0,.426-.877.276.276,0,0,0-.067-.25,5.5,5.5,0,0,0-.573-.395,2.74,2.74,0,0,1-1.022-1.129c-.457-.923-.923-1.84-1.381-2.763a2.6,2.6,0,0,1-.1-2.177c.118-.3.236-.611.373-.907.177-.382.377-.754.559-1.133.619-1.284.623-1.049.477-2.4a6,6,0,0,1,.851-3.634,7.2,7.2,0,0,1,2.127-2.4c.5-.347.995-.7,1.51-1.025a97.743,97.743,0,0,1,11.59-6.281c.213-.1.422-.205.64-.287a1.346,1.346,0,0,0,.708-.648c.253-.448.508-.9.76-1.344,2.263-4.044,4.441-8.132,6.374-12.346.546-1.191,1.06-2.4,1.6-3.59a7.835,7.835,0,0,1,.514-.993,2.566,2.566,0,0,1,1.4-1.116,13.181,13.181,0,0,1,2.041-.483,4.618,4.618,0,0,1,1.394.07,11.443,11.443,0,0,1,6.843,4.09,18.436,18.436,0,0,1,1.393,1.936,11.02,11.02,0,0,1,1.547,4.476,7.034,7.034,0,0,1,0,1.4,1.886,1.886,0,0,0,.161.955c.385.778.4.86,1.257.822.8-.035,1.591-.065,2.386-.1,2.014-.092,4.025,0,6.037.082a5.427,5.427,0,0,1,1.372.278,2.421,2.421,0,0,1,1.7,1.715,5.058,5.058,0,0,1,.161,2.769,5.651,5.651,0,0,0-.1.657c.483.953.934,1.876,1.417,2.781a2.822,2.822,0,0,1,.307,1.35,7.6,7.6,0,0,1-.681,2.99c-.142.344-.321.673-.449.939a1.223,1.223,0,0,0,.367.822,9.7,9.7,0,0,1,1.734,4.394,2.751,2.751,0,0,1-.068,1.251,1.151,1.151,0,0,0,.084.95,3.352,3.352,0,0,1,.4,1.888c-.021,1.451-.014,2.9,0,4.354a3.25,3.25,0,0,1-.3,1.35,6.151,6.151,0,0,1-1.767,2.329,30.28,30.28,0,0,0-4.628,5.072c-.543.7-1.049,1.435-1.563,2.16a6.775,6.775,0,0,0-.81,1.628,44.988,44.988,0,0,0-1.89,6.9c-.3,1.563-.493,3.141-.634,4.728-.2,2.19-.391,4.382-.709,6.559-.122.833-.2,1.672-.324,2.5a19.217,19.217,0,0,1-1.594,5.364c-.756,1.608-1.543,3.2-2.4,4.764a17.707,17.707,0,0,1-5.829,6.353l-.117.078a52.868,52.868,0,0,1-6.525,3.246,15.556,15.556,0,0,1-12.009-.6c-.833-.425-1.677-.831-2.514-1.249a12.666,12.666,0,0,1-2.806-1.847c-.07-.063-.139-.125-.212-.184a.553.553,0,0,0-.765-.06c-1.4.852-2.885,1.546-4.349,2.278a19.721,19.721,0,0,1-4.453,1.679,8.933,8.933,0,0,1-3.753.235,6.917,6.917,0,0,1-1.726-.564q-1.259-.619-2.517-1.242a5.88,5.88,0,0,1-2.659-2.612,6.542,6.542,0,0,0-.431-.715.269.269,0,0,0-.25-.049,2.39,2.39,0,0,0-.482.279,24.672,24.672,0,0,1-3.852,2.3q-1.2.588-2.389,1.185a19.706,19.706,0,0,1-2.2.908,10.808,10.808,0,0,1-3.017.611,9.027,9.027,0,0,1-4.248-.743c-1.2-.53-2.364-1.129-3.522-1.737a5.768,5.768,0,0,1-2.445-2.448c-.176-.33-.356-.658-.537-.985a.366.366,0,0,0-.37-.118c-.2.121-.406.233-.593.371a29.945,29.945,0,0,1-4.945,2.927c-.676.32-1.343.661-2.015.991a13.874,13.874,0,0,1-3.731,1.19,6.676,6.676,0,0,1-2.51-.035,12.181,12.181,0,0,1-3.309-1.124c-.537-.284-1.085-.549-1.632-.814a11.591,11.591,0,0,1-2.835-1.8,1.505,1.505,0,0,0-.379-.183,3,3,0,0,0-.212.377c-.627,1.618-1.451,3.142-2.224,4.69a14.74,14.74,0,0,1-1.388,2.275,5.272,5.272,0,0,1-1.794,1.54,54.523,54.523,0,0,1-9.3,3.918,5.976,5.976,0,0,1-2.066.321c-.187-.009-.376.011-.562,0a2.714,2.714,0,0,0-1.613.376c-.081.047-.172.076-.251.125a5.069,5.069,0,0,1-2.81.685c-5.665-.031-11.33-.015-17-.015-.234,0-.468-.009-.7,0a2.873,2.873,0,0,1-1.613-.391,9.27,9.27,0,0,0-1-.5,2.246,2.246,0,0,0-.794-.254,3.411,3.411,0,0,1-1.455-.464q-1.069-.53-2.133-1.069a16.88,16.88,0,0,1-2.4-1.456,11.215,11.215,0,0,1-3.377-3.888q-.876-1.68-1.706-3.384a10.636,10.636,0,0,1-1.1-4.744,17.4,17.4,0,0,1,.232-3.356,2.874,2.874,0,0,0,.076-1.386,1.155,1.155,0,0,0,.212-.339c.31-1.554.681-3.094,1.083-4.626.366-1.4.738-2.794,1.1-4.193q.6-2.3,1.186-4.6a2.317,2.317,0,0,0,.055-.415c0-.039-.032-.111-.061-.117a.455.455,0,0,0-.243,0,.689.689,0,0,0-.222.164,21.77,21.77,0,0,0-3.055,3.815,3.392,3.392,0,0,0-.322.619,11.818,11.818,0,0,0-.9,4.637,4.629,4.629,0,0,0,.475,2.016A4.462,4.462,0,0,1,789.8,595.19Zm96.481-34.809a3.1,3.1,0,0,1,1.1-.142,8.521,8.521,0,0,0,2.342-.4,1.651,1.651,0,0,0,1.139-1.3,30.607,30.607,0,0,0,.536-3.608,18.125,18.125,0,0,0-.2-4.9,10.478,10.478,0,0,0-.872-2.657,6.17,6.17,0,0,0-3.841-3.272,15.5,15.5,0,0,0-6.8-.531,21.091,21.091,0,0,0-5.895,1.754,39.638,39.638,0,0,0-8.211,5.086,57.479,57.479,0,0,0-7.4,7.073,70.2,70.2,0,0,0-8.69,12.046,42.119,42.119,0,0,0-3.786,8.887,19.664,19.664,0,0,0-.569,8.75,10.536,10.536,0,0,0,1.754,4.4,9.245,9.245,0,0,0,8.8,3.868,12.625,12.625,0,0,0,2.566-.7,18.61,18.61,0,0,0,3.716-1.957,58.835,58.835,0,0,0,6.223-4.794c.352-.309.7-.619,1.056-.925a.31.31,0,0,1,.376-.073c.149.083.118.232.122.365.018.655.021,1.309.054,1.963a7.574,7.574,0,0,0,.593,2.444,6.17,6.17,0,0,0,3.942,3.726,10,10,0,0,0,6.207.07,19.993,19.993,0,0,0,6.634-3.567c1.469-1.161,2.894-2.376,4.254-3.664.272-.257.544-.514.827-.758a.3.3,0,0,1,.248-.055.273.273,0,0,1,.159.19c.068.886.114,1.773.185,2.658a6.963,6.963,0,0,0,.627,2.292,5.33,5.33,0,0,0,5.065,3.361,10.756,10.756,0,0,0,3.185-.441,20.427,20.427,0,0,0,7.216-3.645c.479-.375.938-.775,1.4-1.167.251-.21.495-.429.747-.638s.443-.179.575.065c.155.289.3.584.457.869a9.378,9.378,0,0,0,2.581,2.928,11.438,11.438,0,0,0,2.938,1.624,15.624,15.624,0,0,0,7.18.888,16.264,16.264,0,0,0,7.182-2.623,18.228,18.228,0,0,0,6.012-6.556,22.068,22.068,0,0,0,2.613-8.384c.118-1.07.245-2.138.361-3.208.156-1.442.341-2.882.452-4.327a44.948,44.948,0,0,1,2.438-11.5,23.145,23.145,0,0,1,3.8-6.839c.409-.511.821-1.021,1.222-1.54a22.623,22.623,0,0,1,3.058-3.28c.494-.428.955-.9,1.4-1.373a2.79,2.79,0,0,0,.735-2.592c-.046-.229-.112-.454-.177-.678a6.487,6.487,0,0,0-1.2-2.207,13.669,13.669,0,0,0-2.622-2.525c-.6-.444-1.224-.861-1.834-1.3-.184-.13-.358-.274-.584-.448.329-.339.623-.634.909-.938a11.857,11.857,0,0,0,2.819-4.952,6.6,6.6,0,0,0,.232-1.942.583.583,0,0,0-.582-.648c-.186-.017-.373-.029-.56-.035a65.6,65.6,0,0,0-13.432.755c-.23.04-.464.057-.7.075a2.383,2.383,0,0,1-.276-.019.24.24,0,0,1-.158-.317c.613-1.1,1.208-2.218,1.851-3.305a5.056,5.056,0,0,0,.341-4.585,10.332,10.332,0,0,0-4.524-5.366,7.435,7.435,0,0,0-2.209-.87,3.248,3.248,0,0,0-1.662.055,1.019,1.019,0,0,0-.723.595q-.435,1.035-.891,2.061a179.538,179.538,0,0,1-8.431,16.329l-.141.242a1.258,1.258,0,0,1-.613.548c-.687.3-1.368.606-2.047.92a96.48,96.48,0,0,0-11.069,6.061,12.279,12.279,0,0,0-1.359.99,4.333,4.333,0,0,0-1.389,2.231,2.447,2.447,0,0,0,1.528,3.071,2.783,2.783,0,0,0,1.657.066,6.61,6.61,0,0,0,1.568-.6q1.994-1.03,4-2.036a4.01,4.01,0,0,1,.641-.219c.017-.005.089.078.081.1a4.339,4.339,0,0,1-.29.626c-1.166,1.864-2.355,3.715-3.51,5.585a182.464,182.464,0,0,0-11.235,20.552,6.146,6.146,0,0,1-.644,1.081,63.251,63.251,0,0,1-5.775,6.875,37.465,37.465,0,0,1-3.752,3.382,15.857,15.857,0,0,1-4.005,2.292,3.244,3.244,0,0,1-.542.11.29.29,0,0,1-.274-.252c.018-.139.024-.28.055-.416a19.648,19.648,0,0,1,1.2-3.437,100.592,100.592,0,0,1,4.663-9.274c.551-.979,1.108-1.954,1.683-2.918a4.007,4.007,0,0,0,.556-2.422,7.367,7.367,0,0,0-.241-1.377,9.046,9.046,0,0,0-2.17-3.724,13.043,13.043,0,0,0-2-1.757ZM836.89,521.668a2.3,2.3,0,0,1,.3-.088c1.482-.213,2.963-.427,4.446-.633,1.761-.244,3.52-.5,5.285-.715,2.044-.245,4.093-.446,6.14-.664q1.815-.193,3.63-.379c1.349-.141,2.7-.287,4.049-.417,1.4-.135,2.8-.248,4.194-.379,2.562-.239,5.124-.49,7.687-.723q3.425-.311,6.854-.587a1.672,1.672,0,0,0,1.123-.5,8.086,8.086,0,0,0,.819-.958,17.862,17.862,0,0,0,.963-1.549,34.943,34.943,0,0,0,2.675-6.322,27.292,27.292,0,0,0,1.217-5.183,13.85,13.85,0,0,0,.069-1.539c0-.424-.253-.608-.627-.489-.222.071-.441.157-.663.229a36,36,0,0,1-4.618,1.175c-1.8.335-3.6.562-5.412.8-1.066.143-2.133.285-3.2.419q-1.671.21-3.345.4c-1.115.129-2.233.242-3.348.376-1.951.235-3.9.489-5.85.723-1.9.228-3.814.417-5.715.666-3.015.4-6.029.794-9.033,1.272-2.956.47-5.907.976-8.844,1.548q-8.059,1.568-15.943,3.87a98.94,98.94,0,0,0-14.948,5.633,61.491,61.491,0,0,0-12.258,7.6,40.876,40.876,0,0,0-6.748,6.725,37.971,37.971,0,0,0-6.4,13.017,19.124,19.124,0,0,0-.443,1.913,13.194,13.194,0,0,0-.015,4.888c.225,1.146.554,2.272.814,3.411a4.313,4.313,0,0,0,1.357,2.241,6.9,6.9,0,0,0,2.355,1.493c.747.267,1.506.509,2.276.7a13.323,13.323,0,0,0,3.9.394,6.629,6.629,0,0,0,2.311-.534,4.06,4.06,0,0,0,1.574-1.145A2.288,2.288,0,0,0,793.9,556a2.315,2.315,0,0,0-.535-.812c-.584-.606-1.172-1.212-1.709-1.859a9.417,9.417,0,0,1-2.049-4.407,8.333,8.333,0,0,1,.044-3.345,11.846,11.846,0,0,1,2.254-4.632,21.669,21.669,0,0,1,2.491-2.663,46.2,46.2,0,0,1,7.659-5.671,76.252,76.252,0,0,1,12.662-6,37.424,37.424,0,0,1,4.944-1.562q3.9-.877,7.8-1.743a3.39,3.39,0,0,1,.7-.063c.065,0,.138.086.191.146a.147.147,0,0,1,0,.135c-.216.361-.428.725-.66,1.075-1.239,1.873-2.494,3.736-3.726,5.615-1.616,2.466-3.2,4.953-4.823,7.413-2.785,4.218-5.571,8.435-8.176,12.768-.12.2-.259.387-.393.585-.437.184-.865.373-1.3.545a90.8,90.8,0,0,0-10.255,4.88,59.276,59.276,0,0,0-11.764,8.585,33.905,33.905,0,0,0-4.929,5.741,37.52,37.52,0,0,0-4.482,8.712,18.323,18.323,0,0,0-1.036,6.9,7.577,7.577,0,0,0,.534,2.455,2.124,2.124,0,0,0,.984,1.145,6.451,6.451,0,0,0,1.028.441,7.852,7.852,0,0,0,3.334.264,3.95,3.95,0,0,0,1.7-.618,2.033,2.033,0,0,0,.784-2.583,3.854,3.854,0,0,0-.344-.61,4.788,4.788,0,0,1-.685-2.4,10.664,10.664,0,0,1,.428-3.327,19.57,19.57,0,0,1,5.716-9.179,49.708,49.708,0,0,1,12.526-8.189,3.847,3.847,0,0,1,.53-.182c.024-.007.073.035.1.065s.063.089.052.119a9.5,9.5,0,0,1-.353.906c-1.643,3.365-3.136,6.795-4.516,10.276a80.863,80.863,0,0,0-4.246,14.379,22.041,22.041,0,0,0-.442,5.442A10.62,10.62,0,0,0,795,598.793a11.665,11.665,0,0,0,4.228,4.774,17.513,17.513,0,0,0,5.252,2.282,37.651,37.651,0,0,0,8.193,1.072,45.289,45.289,0,0,0,6.167-.313,57.282,57.282,0,0,0,7.873-1.379,56.314,56.314,0,0,0,9.15-3.118,5.892,5.892,0,0,0,2.634-2.231,17.846,17.846,0,0,0,1.821-3.629,21.476,21.476,0,0,0,1.09-5.064,6.639,6.639,0,0,0-.207-2.644,3.123,3.123,0,0,0-.475-1.009,1.327,1.327,0,0,0-1.08-.556,3.058,3.058,0,0,0-1.469.412c-1.131.561-2.246,1.157-3.4,1.67a71.452,71.452,0,0,1-16.3,5.063,32.273,32.273,0,0,1-7.824.5,12.051,12.051,0,0,1-2.21-.378,5.975,5.975,0,0,1-1.551-.641,3.722,3.722,0,0,1-1.846-3.931c.065-.369.14-.736.231-1.1a66.9,66.9,0,0,1,6.212-16.053q3.9-7.074,8.417-13.77c.207-.308.429-.606.647-.913.434-.109.838-.223,1.247-.313,2.056-.451,4.121-.851,6.193-1.223,3-.536,6.01-.927,9.031-1.269,2.278-.257,4.564-.442,6.845-.669,2.375-.237,4.753-.443,7.139-.535.514-.02,1.028-.07,1.538-.133a1.453,1.453,0,0,0,.87-.422c.23-.232.471-.457.683-.705a15.834,15.834,0,0,0,1.6-2.3,36.68,36.68,0,0,0,2.727-5.688,18.4,18.4,0,0,0,.594-1.87,5.993,5.993,0,0,0,.155-1.247c.025-.618-.266-.877-.847-.807-.186.022-.372.044-.556.079-.965.183-1.931.36-2.893.558-4.949,1.017-9.937,1.816-14.909,2.7-3.5.623-7.006,1.2-10.488,1.915a.681.681,0,0,1-.268-.024c-.033-.007-.086-.069-.079-.087a2.362,2.362,0,0,1,.21-.5c1.473-2.224,2.961-4.437,4.429-6.665q2.974-4.516,5.59-9.249c.158-.287.3-.583.467-.864a2.041,2.041,0,0,0,.138-1.762,8.825,8.825,0,0,0-.641-1.4,16.258,16.258,0,0,0-1.664-2.429c-.235-.291-.488-.569-.706-.873C836.889,521.954,836.909,521.794,836.89,521.668Zm1.626,43.222c-1.389,0-2.418-.007-3.447,0-1.663.013-1.253-.14-2.8.664a7.07,7.07,0,0,1-2.125.671c-2.212.372-4.417.788-6.625,1.183a1.581,1.581,0,0,0-1.1.789c-.7,1.106-1.442,2.186-2.139,3.294a115.561,115.561,0,0,0-7.642,13.551,4.206,4.206,0,0,0-.4,1.038,8.565,8.565,0,0,1-.4,1.34c-.363,1.111-.736,2.218-1.1,3.328-.058.177-.1.36-.138.541a.35.35,0,0,0,.269.417c.466.033.932.073,1.4.079a34.525,34.525,0,0,0,8.334-1.015,67.645,67.645,0,0,0,16.145-5.916,5.316,5.316,0,0,1,3.914-.65,1.074,1.074,0,0,0,.139.017.5.5,0,0,0,.565-.309,22.242,22.242,0,0,0,.842-2.964,36.892,36.892,0,0,1,1.393-5.427,38.7,38.7,0,0,1,3.213-7.153c.618-1.1,1.3-2.167,1.941-3.252a4.07,4.07,0,0,0,.3-.621c.018-.045-.078-.192-.131-.2a4.705,4.705,0,0,0-.834-.033c-1.445.106-2.9.176-4.334.354A38.581,38.581,0,0,1,838.516,564.89Zm-41.9-10.533a2.372,2.372,0,0,0,.345-.135,93.96,93.96,0,0,1,11.1-5.35,1.32,1.32,0,0,1,.131-.05,1.218,1.218,0,0,0,.722-.624c.093-.162.192-.32.293-.478q2.757-4.31,5.516-8.618c.454-.708.926-1.4,1.381-2.112a1.548,1.548,0,0,0,.148-.387c.007-.022-.044-.087-.072-.09a.922.922,0,0,0-.4-.012c-1.567.606-3.133,1.216-4.692,1.842a46.614,46.614,0,0,0-11.308,6.671c-1.066.833-2.058,1.763-3.062,2.672a18.521,18.521,0,0,0-1.963,2.19,3.282,3.282,0,0,0-.638,1.533.555.555,0,0,0,.094.393,10.089,10.089,0,0,0,.736.843,10.159,10.159,0,0,1,1.4,1.565.3.3,0,0,0,.108.089A1.234,1.234,0,0,0,796.613,554.357Z" transform="translate(0 -131.374)"/>
    <path id="Path_18786" data-name="Path 18786" d="M908.993,358.65c.307-.627.57-1.175.841-1.719a3.211,3.211,0,0,1,1.488-1.771c.042-.263-.144-.428-.265-.62a3.024,3.024,0,0,1-.323-2.688,2.54,2.54,0,0,1,1.6-1.656,1.626,1.626,0,0,1,.266-.09,6,6,0,0,0,3-1.729,35.021,35.021,0,0,0,3.125-3.416,52.222,52.222,0,0,0,3.3-4.544c1.221-1.885,2.4-3.8,3.6-5.7.148-.237.272-.489.4-.738a.316.316,0,0,0-.217-.428c-.232-.017-.465-.028-.7-.043a3.2,3.2,0,0,0-1.749.4c-.827.434-1.689.8-2.538,1.192a.786.786,0,0,1-.682-.005c-.758-.365-1.51-.743-2.261-1.125a.821.821,0,0,1-.331-.251,3.658,3.658,0,0,1-.8-1.91q0-1.475,0-2.949a2.064,2.064,0,0,1,.222-.946c.231-.459.448-.926.666-1.392a1.1,1.1,0,0,0,.082-.815,2.8,2.8,0,0,1,.056-1.658c.148-.492.257-1,.391-1.493a11.69,11.69,0,0,1,2.385-4.569,10.438,10.438,0,0,1,5.312-3.488,21.678,21.678,0,0,1,3.306-.624,11.683,11.683,0,0,1,2.522.031,43.823,43.823,0,0,1,4.7.831c.091.02.181.046.272.067a.463.463,0,0,0,.492-.188,5.332,5.332,0,0,0,.368-.6q5.112-9.044,10.473-17.941a3.516,3.516,0,0,0,.291-.627.247.247,0,0,0-.126-.206,2.458,2.458,0,0,0-.55-.05c-1.591.01-3.183.064-4.773.026a16.7,16.7,0,0,1-4.83-.8c-.089-.029-.184-.042-.269-.078a38.326,38.326,0,0,1-5.264-2.635,6.74,6.74,0,0,1-2.68-2.988c-.331-.723-.69-1.434-1.064-2.135a8.77,8.77,0,0,1-1.047-4.036c-.005-.327-.024-.655-.018-.982a4.651,4.651,0,0,1,.724-2.947,8.423,8.423,0,0,0,.7-1.522,5.956,5.956,0,0,0,.071-1.534,8.752,8.752,0,0,1,.323-2.358,2.549,2.549,0,0,1,1.882-1.886,2.9,2.9,0,0,1,2.758.538,13.972,13.972,0,0,0,3.123,1.863,7.95,7.95,0,0,0,2.852.67,36.259,36.259,0,0,0,4.769-.093c2.708-.234,5.375-.725,8.05-1.177,2.813-.475,5.625-.96,8.446-1.379a30.436,30.436,0,0,1,3.908-.4c.608-.011,1.215-.062,1.822-.109a49.9,49.9,0,0,1,7.715.053,11.9,11.9,0,0,1,6.446,2.5,3.27,3.27,0,0,1,1.187,2.294,4.33,4.33,0,0,1-.45,1.6l-.224.357a.283.283,0,0,0,.026.38,4.187,4.187,0,0,1,1.383,1.9c.225.462.475.914.675,1.388a.739.739,0,0,1-.008.538c-.375.805-.776,1.6-1.18,2.39a1.042,1.042,0,0,1-.49.485c-.254.119-.5.26-.754.375a9.929,9.929,0,0,0-2.74,1.93A27.035,27.035,0,0,0,976.294,290a92.487,92.487,0,0,0-5.662,7.855c-2.912,4.472-5.614,9.071-8.278,13.693-1.4,2.432-2.779,4.878-4.165,7.32-.138.243-.257.5-.381.747a.269.269,0,0,0,.167.331c.177.061.36.1.534.173a2.769,2.769,0,0,1,1.766,3.271c-.122.59-.307,1.167-.469,1.772a1.556,1.556,0,0,0,.281.292,1.671,1.671,0,0,1,.63.729c.25.5.518.994.783,1.488a.27.27,0,0,0,.455-.044c.2-.373.388-.747.579-1.122a48.884,48.884,0,0,1,4.734-7.456,29.507,29.507,0,0,1,6.519-6.336q1.035-.725,2.064-1.457a.5.5,0,0,0,.167-.619c-.05-.131-.111-.257-.168-.386a4.049,4.049,0,0,1,.17-3.651c.3-.582.57-1.18.88-1.757a1.761,1.761,0,0,0,.224-1.211,7.185,7.185,0,0,1,.423-3.448,2.6,2.6,0,0,1,1.009-1.318.622.622,0,0,0,.234-.746,3,3,0,0,1,.338-2.425c.41-.787.876-1.547,1.352-2.3a46.9,46.9,0,0,1,6.7-8.453,40.721,40.721,0,0,1,3.263-2.878,57.174,57.174,0,0,1,8.628-5.758,40.261,40.261,0,0,1,10.8-3.839,28.523,28.523,0,0,1,6.7-.569,18.212,18.212,0,0,1,3.746.508c.545.133,1.1.243,1.639.384a13.543,13.543,0,0,1,5.951,3.3,11.284,11.284,0,0,1,3.3,5.45,21.591,21.591,0,0,1,.754,3.992,2.049,2.049,0,0,0,.2.811,2.921,2.921,0,0,1,.242,1.367q-.006,4.915,0,9.83a3.988,3.988,0,0,1-.278,1.507c-.243.608-.475,1.221-.746,1.817-1.144,2.513-2.367,4.988-3.733,7.389a24.23,24.23,0,0,1-3.779,5.041,20.277,20.277,0,0,1-3.715,2.98c-1.35.845-2.762,1.576-4.181,2.295a3.447,3.447,0,0,0-1.067.636,3.022,3.022,0,0,0,.343,2.168,10.518,10.518,0,0,1,1.081,3.754,12.66,12.66,0,0,1-.258,3.766,21.142,21.142,0,0,1-1.525,4.658,76.624,76.624,0,0,1-7.688,13.519,45.434,45.434,0,0,1-11.266,11.058,36.926,36.926,0,0,1-3.228,1.98c-1.521.822-3.077,1.584-4.642,2.322-.886.418-1.82.732-2.729,1.1a3.518,3.518,0,0,1-1.371.236c-1.4-.008-2.808,0-4.213,0-2.387,0-4.775-.013-7.162.008a4.037,4.037,0,0,1-1.891-.42c-1.337-.671-2.7-1.3-4.011-2.014a13.144,13.144,0,0,1-5.522-5.625c-.582-1.121-1.142-2.253-1.694-3.389a15.365,15.365,0,0,1-1.364-4.552,17.6,17.6,0,0,1,.793-8.995,21.82,21.82,0,0,0,.929-3.663c.054-.369.166-.728.237-1.1a.773.773,0,0,0-.049-.268c-.081.021-.2.013-.238.065a7.692,7.692,0,0,1-2.82,2.036c-.509.236-1.016.48-1.508.748a9.888,9.888,0,0,1-3.748,1.079,19.728,19.728,0,0,1-3.781.154,1.1,1.1,0,0,0-1.138.625c-.333.564-.707,1.1-1.066,1.651-2.13,3.249-4.307,6.466-6.64,9.573a59.921,59.921,0,0,1-5.88,6.785,29.737,29.737,0,0,1-3.394,2.939A22.694,22.694,0,0,1,927,361.028c-1.562.844-3.168,1.608-4.756,2.4a3.453,3.453,0,0,1-1.627.347q-2.6-.03-5.2,0a3.1,3.1,0,0,1-1.484-.338c-1-.511-2-1.012-3.007-1.517a1.27,1.27,0,0,1-.619-.546C909.868,360.5,909.392,359.642,908.993,358.65Zm51.348-75.2-.034-.026a.562.562,0,0,1-.176.5c-.7.875-1.419,1.742-2.107,2.629a123.422,123.422,0,0,0-8.19,12.075q-5.429,9.02-10.576,18.2-.31.549-.632,1.093a.46.46,0,0,1-.474.223c-.273-.065-.546-.129-.816-.208a37.754,37.754,0,0,0-3.968-.883,18.018,18.018,0,0,0-4.754-.2,8.7,8.7,0,0,0-2.968.783c-2.87,1.348-4.309,3.753-4.975,6.729a.263.263,0,0,0,.326.313,10.52,10.52,0,0,1,5.109-.552c.883.1,1.769.18,2.646.323,1.707.279,3.408.6,5.111.9a.381.381,0,0,1,.264.54c-.084.167-.17.334-.265.495-2.305,3.909-4.59,7.83-6.925,11.721a84.012,84.012,0,0,1-5.444,8.005,38.07,38.07,0,0,1-3.515,4.008,10.6,10.6,0,0,1-3.935,2.626c-.1.034-.167.153-.3.28a8.539,8.539,0,0,0,5.2,1.067,11.318,11.318,0,0,0,2.97-.8,20.664,20.664,0,0,0,4.146-2.34,32.846,32.846,0,0,0,3.741-3.179,62.643,62.643,0,0,0,6.9-8.122c2.556-3.524,4.981-7.136,7.313-10.812.226-.355.454-.71.676-1.067a.752.752,0,0,1,.822-.39,25.546,25.546,0,0,0,4.625.146,14.2,14.2,0,0,0,3.32-.517A5.393,5.393,0,0,0,957,324.063c.1-.209.178-.431.259-.649a.26.26,0,0,0-.25-.38,2.035,2.035,0,0,0-.279.025,6.582,6.582,0,0,1-2.649.013,34.881,34.881,0,0,1-5.157-1.316,1.5,1.5,0,0,1-.351-.266c.211-.376.408-.746.623-1.106q4.358-7.288,8.519-14.691c2.624-4.644,5.32-9.245,8.133-13.778,1.826-2.944,3.735-5.833,5.835-8.589.907-1.19,1.847-2.359,2.838-3.48a13.47,13.47,0,0,1,4.5-3.522c.11-.05.174-.2.285-.338a8.661,8.661,0,0,0-5.074-1.837c-2.481-.051-4.959-.076-7.44.008a53.247,53.247,0,0,0-6.559.668q-5.888.936-11.764,1.95a39.952,39.952,0,0,1-8.531.5,10.839,10.839,0,0,1-1.392-.158,12.859,12.859,0,0,1-4.779-1.933c-.353-.229-.693-.478-1.042-.715s-.516-.161-.567.213a11.816,11.816,0,0,0,.1,3.5,6.452,6.452,0,0,0,2.479,4.261,10.756,10.756,0,0,0,1.653,1.055,11.572,11.572,0,0,0,3.178,1.073,27.639,27.639,0,0,0,6.43.408c1.448-.075,2.893-.168,4.336-.351,2.784-.355,5.568-.7,8.345-1.108A3.761,3.761,0,0,1,960.34,283.45Zm25.612,25.982c-.25.107-.5.227-.764.324a40.85,40.85,0,0,0-9.818,5.373,27.187,27.187,0,0,0-4.731,4.376A42.314,42.314,0,0,0,963.7,330.99a28.4,28.4,0,0,0-.985,2.923,18.222,18.222,0,0,0-.138,9.845,13.608,13.608,0,0,0,7.7,9.292,16.027,16.027,0,0,0,5.121,1.408,20.775,20.775,0,0,0,6.7-.385A28.383,28.383,0,0,0,991,350.4a43.764,43.764,0,0,0,9.928-8.411,62.042,62.042,0,0,0,8.262-12.337,31.76,31.76,0,0,0,1.326-2.942,20.5,20.5,0,0,0,1.306-4.866,10.467,10.467,0,0,0-1.982-7.82,11.935,11.935,0,0,0-1.174-1.395c-.912-.915-.707-.9.358-1.286.132-.047.269-.082.4-.13a41.663,41.663,0,0,0,7.585-3.62,20.8,20.8,0,0,0,5.344-4.715,24.127,24.127,0,0,0,1.936-2.756,43.336,43.336,0,0,0,3.034-6.009,23.962,23.962,0,0,0,1.654-6.075,13.416,13.416,0,0,0-.81-6.479,9,9,0,0,0-3.333-4.243,13.057,13.057,0,0,0-4.6-2.019,22.669,22.669,0,0,0-9.064-.158,35.391,35.391,0,0,0-9.561,3.148,50.1,50.1,0,0,0-8.977,5.728,42.248,42.248,0,0,0-10.6,12.419,1.186,1.186,0,0,0-.24.667.742.742,0,0,0,.645.062c.871-.176,1.738-.367,2.609-.542,2.384-.479,4.78-.906,7.151-1.444,1.564-.355,1.143-.093,2.2-1.316q.459-.531.924-1.057a53.9,53.9,0,0,1,8.578-7.86,34.982,34.982,0,0,1,4.886-3.03,22.535,22.535,0,0,1,3.5-1.431,9.5,9.5,0,0,1,3.876-.454,3.5,3.5,0,0,1,3.108,2.466,4.826,4.826,0,0,1,.3,1.51,13.761,13.761,0,0,1-.141,2.519,22.631,22.631,0,0,1-1.122,4.2,51.728,51.728,0,0,1-3.067,6.616,12.683,12.683,0,0,1-7.058,6.093,64.124,64.124,0,0,1-6.161,1.906c-1.133.289-2.274.543-3.413.807a2.219,2.219,0,0,1-1.626-.2c-.864-.465-1.772-.849-2.641-1.306a12.087,12.087,0,0,1-1.542-.97,5.856,5.856,0,0,1-1.015-.962,2.983,2.983,0,0,1-.63-3.135c.1-.26.172-.53.255-.79-.1-.057-.173-.141-.246-.138a5.97,5.97,0,0,0-.835.078c-1.659.3-3.288.717-4.911,1.17-1.576.441-3.166.829-4.754,1.228a.722.722,0,0,0-.559.56,3.746,3.746,0,0,0,.817,3.668,13.563,13.563,0,0,0,1.444,1.331,25.564,25.564,0,0,0,2.879,2,6.791,6.791,0,0,1,.683.479C985.976,309.194,985.947,309.324,985.952,309.432Zm11.465-6.79a.938.938,0,0,0,.132.275,1.171,1.171,0,0,0,.9.3,5.755,5.755,0,0,0,.828-.147,62.344,62.344,0,0,0,7.785-2.322,14.849,14.849,0,0,0,1.781-.819,8.823,8.823,0,0,0,3.483-3.374,48.62,48.62,0,0,0,2.624-5.27,2.843,2.843,0,0,0,.144-.537.394.394,0,0,0-.38-.472,12.349,12.349,0,0,0-5.4,1.81c-.783.511-1.57,1.018-2.328,1.564a53.859,53.859,0,0,0-9.152,8.456C997.685,302.284,997.55,302.473,997.417,302.642Z" transform="translate(-78.675 0)"/>
    <path id="Path_18787" data-name="Path 18787" d="M797.947,364.388c-1.451,0-2.9-.012-4.353.006a3.653,3.653,0,0,1-1.5-.287c-.344-.146-.7-.277-1.032-.441-1.134-.555-2.268-1.109-3.392-1.686a10.481,10.481,0,0,1-4.817-4.927c-.463-.971-.955-1.928-1.445-2.887a3.155,3.155,0,0,1-.349-1.482q.016-5.688,0-11.375a2.063,2.063,0,0,1,.213-1.088,4.447,4.447,0,0,0,.49-1.745,41.258,41.258,0,0,1,.916-4.249,3.23,3.23,0,0,1,2.2-2.357,7.11,7.11,0,0,1,1.772-.411,4.528,4.528,0,0,1,2.939.73,14.261,14.261,0,0,1,2.208,1.728,11.28,11.28,0,0,0,.941.84.773.773,0,0,0,.514.155,6.6,6.6,0,0,1,1.677,0,.265.265,0,0,0,.217-.11.48.48,0,0,0-.012-.261.4.4,0,0,0-.061-.126c-.9-1.483-1.625-3.056-2.4-4.6a23.181,23.181,0,0,1-1.641-4.322,6.667,6.667,0,0,1-.248-1.8c.008-1.685,0-3.37,0-5.055,0-2.013,0-4.026,0-6.038a6.785,6.785,0,0,1,.235-1.943c.17-.583.248-1.2.448-1.767a41.389,41.389,0,0,0,1.264-4.884,39.624,39.624,0,0,1,3.114-8.847,50.36,50.36,0,0,1,6.724-10.494,35.96,35.96,0,0,1,14.821-10.548,30.285,30.285,0,0,1,7.344-1.787,22.332,22.332,0,0,1,8.494.59c.677.182,1.364.337,2.025.566a17.563,17.563,0,0,1,8.319,5.964,18.125,18.125,0,0,1,3.368,7.034c.246,1.046.452,2.1.641,3.162a8.264,8.264,0,0,0,.418,1.481,23.522,23.522,0,0,1,1.285,5.591,29.708,29.708,0,0,1-1.023,11.253,52.728,52.728,0,0,1-2.823,7.923A139.792,139.792,0,0,1,834.2,336.751a123.106,123.106,0,0,1-8.966,12.043,61.2,61.2,0,0,1-8.91,8.532,39.017,39.017,0,0,1-6.761,4.25c-1.008.493-2.014.991-3.024,1.479a25.7,25.7,0,0,1-2.73,1.1,4.037,4.037,0,0,1-1.373.233C800.943,364.383,799.445,364.388,797.947,364.388Zm-4.138-26.346c-.316-.2-.639-.022-.954-.028a1.813,1.813,0,0,1-1.06-.308c-.342-.245-.688-.488-1.007-.76-.391-.334-.759-.7-1.134-1.048a10.48,10.48,0,0,0-1.661-1.286,1.854,1.854,0,0,0-1.346-.253,4.753,4.753,0,0,0-.791.268.629.629,0,0,0-.375.393c-.1.263-.187.53-.257.8a29.623,29.623,0,0,0-.681,3.723,17,17,0,0,0,.407,6.268,10.846,10.846,0,0,0,6.887,7.926,15.93,15.93,0,0,0,4.632,1.065,17.131,17.131,0,0,0,4.06-.114,22.9,22.9,0,0,0,6.127-1.951,35.609,35.609,0,0,0,6.431-3.984,60.363,60.363,0,0,0,9.418-9.01,126,126,0,0,0,10-13.72,113.587,113.587,0,0,0,8.169-15.19,56.776,56.776,0,0,0,3.4-9.649,31.112,31.112,0,0,0,.958-7.64,29.5,29.5,0,0,0-.3-3.636,19.425,19.425,0,0,0-1.373-5.137,14.915,14.915,0,0,0-8.73-8.433,20.239,20.239,0,0,0-8.97-1.192,27.072,27.072,0,0,0-8.9,2.375,33.942,33.942,0,0,0-13.481,10.93,50.734,50.734,0,0,0-5.186,8.818,35.877,35.877,0,0,0-3.417,13.518,30.929,30.929,0,0,0,.394,6.991,21.58,21.58,0,0,0,3.365,8.408,18.166,18.166,0,0,0,14.778,8.148c.42.012.84.033,1.258.069.037,0,.11.177.084.228a3.761,3.761,0,0,1-.383.583c-1.53,1.894-3.1,3.755-4.8,5.5-.948.97-1.921,1.919-2.921,2.836a29.6,29.6,0,0,1-5.816,4.147,14.884,14.884,0,0,1-3.36,1.4,5.9,5.9,0,0,1-2.367.129,2.939,2.939,0,0,1-2.174-1.39,5.284,5.284,0,0,1-.505-1.149,6.951,6.951,0,0,1-.134-3.334,18.342,18.342,0,0,1,1.36-4.268A2.379,2.379,0,0,0,793.809,338.042Zm2.481,1.993a2.889,2.889,0,0,1,1.236,1.421c.252.5.488,1.009.751,1.5a1.081,1.081,0,0,1,.037,1.065c-.208.417-.389.848-.581,1.273-.057.126-.115.261-.015.384s.247.07.37.012a24.172,24.172,0,0,0,5.308-3.362,2.247,2.247,0,0,0,.185-.208.259.259,0,0,0-.086-.359c-.365-.205-.726-.421-1.1-.607a16.874,16.874,0,0,1-3.374-2.243c-.5-.42-.963-.883-1.443-1.327-.136-.125-.26-.271-.481-.258-.1.441-.186.892-.316,1.33S796.472,339.533,796.29,340.035Z" transform="translate(-4.42 -0.617)"/>
    <path id="Path_18788" data-name="Path 18788" d="M1122.451,592.99c1.148.033,2.223.061,3.3.1.077,0,.154.077.226.125s.038.248-.088.365c-.1.1-.2.192-.309.285-.14.125-.28.248-.422.37a52.558,52.558,0,0,0-6.341,6.539c-.774.937-1.554,1.871-2.3,2.83-1.122,1.44-2.356,2.783-3.533,4.176-3.323,3.932-6.4,8.055-9.406,12.23-1.2,1.67-2.412,3.334-3.693,4.945a5.984,5.984,0,0,1-.966,1.01,20.252,20.252,0,0,0-5.73,7.517,19.4,19.4,0,0,0-1.13,3.017,1.672,1.672,0,0,1-.481.835,21.476,21.476,0,0,1-4.784,3.408,14.32,14.32,0,0,1-1.42.594,1.241,1.241,0,0,1-.547.015c-.065-.008-.178-.135-.167-.184.174-.774.344-1.55.557-2.314a26.488,26.488,0,0,1,1.351-3.533q1.41-3.212,3.088-6.293c1.118-2.053,2.239-4.1,3.407-6.129,3.086-5.346,6.261-10.638,9.588-15.838q2.682-4.2,5.355-8.4,1.163-1.837,2.264-3.712a1.381,1.381,0,0,1,.989-.7c1.195-.221,2.386-.467,3.588-.636q2.152-.3,4.32-.482C1120.275,593.035,1121.4,593.031,1122.451,592.99Z" transform="translate(-180.629 -186.825)"/>
    <path id="Path_18789" data-name="Path 18789" d="M1001.094,634.392a3.915,3.915,0,0,1-1.348-.4,4.491,4.491,0,0,0-2.077-.175.558.558,0,0,0-.266.076,1.5,1.5,0,0,0-.252.323.2.2,0,0,0-.01.136,4.15,4.15,0,0,1-.325,2.463c-.429,1.088-.829,2.188-1.3,3.258-.564,1.284-1.193,2.54-1.783,3.814a8.11,8.11,0,0,1-.951,1.552,83.826,83.826,0,0,1-8.161,9.265c-1.079,1.038-2.205,2.027-3.329,3.017a14.14,14.14,0,0,1-2.158,1.563,5.526,5.526,0,0,1-2.668.767,3.891,3.891,0,0,1-.836-.067,1.721,1.721,0,0,1-1.368-1.264,3.974,3.974,0,0,1-.127-1.53,19.1,19.1,0,0,1,.763-4.133,20.777,20.777,0,0,1,1.1-2.883,65.174,65.174,0,0,1,10.06-15.489,35.508,35.508,0,0,1,5.454-5.045,15.66,15.66,0,0,1,3.13-1.86,9.143,9.143,0,0,1,3.255-.786,7.426,7.426,0,0,1,.98.022,2.521,2.521,0,0,1,2.253,1.835,4.947,4.947,0,0,1,.3,1.651c0,.375.011.75-.016,1.123-.057.792-.13,1.584-.207,2.375A2.2,2.2,0,0,1,1001.094,634.392Zm-18.422,17.949c.357-.053.54-.348.765-.572a91.461,91.461,0,0,0,6.385-7.226,13.75,13.75,0,0,0,2.006-3.5c.023-.055-.052-.155-.092-.228a.25.25,0,0,0-.125.044c-.212.179-.432.352-.629.547a55.981,55.981,0,0,0-8.085,10.322,1.839,1.839,0,0,0-.187.373.93.93,0,0,0-.007.27l-.069.009Z" transform="translate(-116.473 -206.556)"/>
    <path id="Path_18790" data-name="Path 18790" d="M1128.824,659.724a18.9,18.9,0,0,1,1.607-2.13c.041-.046.153-.038.232-.036.017,0,.052.085.045.125-.115.644-.22,1.29-.359,1.928a40.489,40.489,0,0,0-.688,5.567c-.211,2.753-.4,5.506-.627,8.257a12.457,12.457,0,0,1-1.42,4.813,8.47,8.47,0,0,1-1.9,2.413,4.086,4.086,0,0,1-3.93.892,6.565,6.565,0,0,1-1.81-.748,3.77,3.77,0,0,1-1.9-2.8c-.02-.139-.036-.279-.065-.416a2.849,2.849,0,0,1,.413-2.153,7.012,7.012,0,0,1,4.4-3.244,3.213,3.213,0,0,1,.974-.064,2.185,2.185,0,0,1,1.594.778c.149.179.292.364.442.543.065.078.3.049.377-.033a4.014,4.014,0,0,0,.9-1.875,17.608,17.608,0,0,0,.539-3.6,24.73,24.73,0,0,0-.089-3.926,1.484,1.484,0,0,1,.321-1.174c.317-.4.6-.837.912-1.245a1.313,1.313,0,0,0,.236-1.191C1128.964,660.181,1128.894,659.962,1128.824,659.724Z" transform="translate(-199.951 -224.3)"/>
    <path id="Path_18791" data-name="Path 18791" d="M1042.353,647.257l.074.058c.015-.1-.005-.1-.063.007A.593.593,0,0,1,1042.353,647.257Z" transform="translate(-156.078 -218.313)"/>
    <path id="Path_18792" data-name="Path 18792" d="M1054.408,402.022a19.3,19.3,0,0,1,1.327-6.055,47.836,47.836,0,0,1,3.9-8.069,21.739,21.739,0,0,1,7.084-7.076,31.9,31.9,0,0,1,6.416-3.121c2.24-.816,4.531-1.472,6.815-2.149a1.219,1.219,0,0,1,.412-.073,1.018,1.018,0,0,1,.529.121,13.01,13.01,0,0,1,3.185,3.326,7.8,7.8,0,0,1,1.166,5.365,12.016,12.016,0,0,1-.7,2.706,15.494,15.494,0,0,1-.687,1.535,56.16,56.16,0,0,1-7.363,11.069,43.2,43.2,0,0,1-5.528,5.37,25.38,25.38,0,0,1-5.58,3.473,15.318,15.318,0,0,1-3.877,1.175,7.711,7.711,0,0,1-3.061-.106,4.867,4.867,0,0,1-3.3-2.607,5.679,5.679,0,0,1-.577-1.722A12.518,12.518,0,0,1,1054.408,402.022Zm25.14-16.032c-.167.039-.394.081-.614.145-2.018.585-4.022,1.211-6.006,1.909a17.268,17.268,0,0,0-4.43,2.371,21.607,21.607,0,0,0-6.063,6.531,28.55,28.55,0,0,0-3.313,8.594,6.846,6.846,0,0,0-.083.832.4.4,0,0,0,.237.305,4.721,4.721,0,0,0,.692.1,7.99,7.99,0,0,0,3.024-.49,22.359,22.359,0,0,0,5.605-3.14,40.075,40.075,0,0,0,3.156-2.779,47.83,47.83,0,0,0,8.766-11.758,1.645,1.645,0,0,0-.182-1.949A1.753,1.753,0,0,0,1079.548,385.99Z" transform="translate(-163.053 -60.58)"/>
    <path id="Path_18793" data-name="Path 18793" d="M1031.32,300.431l0-.071-.038.045Z" transform="translate(-149.654 -16.981)"/>
    <path id="Path_18794" data-name="Path 18794" d="M851.5,341.982c-.291.029-.568.078-.846.081-1.122.01-2.246.038-3.367,0a15.852,15.852,0,0,1-4.536-.831,11.651,11.651,0,0,1-1.3-.524,10.544,10.544,0,0,1-6.053-7.771,17.947,17.947,0,0,1-.134-6,34.7,34.7,0,0,1,2.778-9.525,55.467,55.467,0,0,1,5-8.923,28.324,28.324,0,0,1,8.257-8.1,20.65,20.65,0,0,1,4-2.01,11.985,11.985,0,0,1,5.374-.724,7.407,7.407,0,0,1,3.844,1.563,5.932,5.932,0,0,1,1.822,2.449,10.463,10.463,0,0,1,.783,3.4,21.484,21.484,0,0,1-.4,5.721,52.643,52.643,0,0,1-2.252,7.66,73.711,73.711,0,0,1-4.243,9.307c-2.052,3.838-4.327,7.543-6.7,11.187-.536.822-1.056,1.656-1.59,2.479C851.806,341.615,851.648,341.788,851.5,341.982Zm11.211-29.569h.031c-.039-.7-.06-1.4-.126-2.1a8.332,8.332,0,0,0-.235-1.238,1.353,1.353,0,0,0-1.034-1.028,7.2,7.2,0,0,0-2.786-.157,15.127,15.127,0,0,0-2.607.541,7.75,7.75,0,0,0-2.019.955,28.2,28.2,0,0,0-5.31,4.56,44.73,44.73,0,0,0-5.873,8.7c-.044.081-.071.173-.11.258a36.638,36.638,0,0,0-2.656,8.113,19.556,19.556,0,0,0-.434,4.04,1.345,1.345,0,0,0,.337.893,9.077,9.077,0,0,0,5.424,2.979,23.44,23.44,0,0,0,2.651.269c.465.035.935.009,1.4.012a.813.813,0,0,0,.721-.354c.16-.23.325-.457.479-.692,2.11-3.2,4.138-6.459,6.01-9.81a81.583,81.583,0,0,0,5.318-11.282,12,12,0,0,0,.817-4.24Z" transform="translate(-35.773 -15.377)"/>
    <path id="Path_18795" data-name="Path 18795" d="M994.454,687.415l-.038.044.07-.009Z" transform="translate(-128.255 -241.63)" fill="#fff"/>
  </g>
</svg>
