<svg xmlns="http://www.w3.org/2000/svg" width="45.638" height="51.653" viewBox="0 0 45.638 51.653">
  <path id="_2285177_social_play_store_share_store_icon" data-name="2285177_social_play store_share_store_icon" d="M12.087.65c-3.982-1.776-7.1.269-7.533,4.52h0L4.5,46.493h.054c.43,4.3,3.5,6.3,7.479,4.52l-.269.108,1.291-.646h0l.323-.161.538-.323h0l24.59-14.259h0l.161-.108L47.6,30.405l-.054-.054c3.659-2.69,3.282-6.618-.108-9.093l.054-.054-8.663-5.058-.323-.269-.054.054L13.97,1.672h0L13.378,1.3m-.269-.108-.054-.054H13M37.161,17.653,31.942,24.11,17.252,6.031ZM11.979,48.646l-.108.054a2.34,2.34,0,0,0-.377.215c-2.959,1.453-4.681.108-4.789-3.228V5.654c.215-3.175,2.045-4.412,5-2.8l.215.108L30.543,25.832Zm5.273-3.067L31.942,27.553l5.273,6.457ZM46.685,28.414c-.161.108-.323.269-.484.377a1.888,1.888,0,0,1-.43.269l-1.022.592h0L39.1,32.934l-5.811-7.1,5.757-7.049,5.6,3.282h0l.915.538h.054a5.672,5.672,0,0,1,.592.377C48.353,24.54,48.783,26.639,46.685,28.414Z" transform="translate(-4.5 -0.009)" fill="#fff"/>
</svg>
