<svg id="restaurant_1_" data-name="restaurant (1)" xmlns="http://www.w3.org/2000/svg" width="111.389" height="113.309" viewBox="0 0 111.389 113.309">
  <g id="Group_3712" data-name="Group 3712" transform="translate(0)">
    <g id="Group_3711" data-name="Group 3711">
      <path id="Path_18819" data-name="Path 18819" d="M355.364,320H340v28.807h15.364Zm-3.841,24.966h-7.682V323.841h7.682Z" transform="translate(-259.339 -243.181)" fill="#fff"/>
      <path id="Path_18820" data-name="Path 18820" d="M95.853,248H49.761A5.761,5.761,0,0,0,44,253.761v40.33h57.614v-40.33A5.761,5.761,0,0,0,95.853,248ZM47.841,290.25v-5.529l3.95,5.529Zm26.887,0V286.41h3.841a5.761,5.761,0,0,0,0-11.523H67.046a5.761,5.761,0,0,0,0,11.523h3.841v3.841H56.512l-8.166-11.433,3.614-4.338a104.256,104.256,0,0,0,9.259-13.036l1.152-1.92h2.754V267.2h5.761v3.841h3.841V267.2h5.761v-7.682h2.754l1.152,1.92a104.255,104.255,0,0,0,9.259,13.034l3.614,4.338L89.1,290.25Zm-7.682-7.682a1.92,1.92,0,1,1,0-3.841H78.569a1.92,1.92,0,1,1,0,3.841Zm-19.2-9.145v-13.9H57.893a100.26,100.26,0,0,1-8.882,12.5Zm21.125-10.059v-3.841h7.682v3.841ZM97.774,290.25h-3.95l3.95-5.529Zm0-16.827-1.17-1.4a100.263,100.263,0,0,1-8.882-12.5H97.774Zm0-19.278v1.536H47.841v-1.536a2.143,2.143,0,0,1,1.92-2.3H95.853A2.143,2.143,0,0,1,97.774,254.146Z" transform="translate(-34.397 -188.465)" fill="#fff"/>
      <path id="Path_18821" data-name="Path 18821" d="M115.261,26.23a1.517,1.517,0,0,0-.061-.154c-.019-.04-.027-.085-.048-.123L105.784,9.105V1.92A1.921,1.921,0,0,0,103.863,0H15.521A1.921,1.921,0,0,0,13.6,1.92V9.105L4.24,25.953c-.021.038-.029.083-.048.123a1.518,1.518,0,0,0-.061.154A1.89,1.89,0,0,0,4,26.852a.277.277,0,0,0,0,.035v84.5a1.921,1.921,0,0,0,1.92,1.92H113.466a1.921,1.921,0,0,0,1.92-1.92v-84.5a.287.287,0,0,0,0-.035A1.893,1.893,0,0,0,115.261,26.23ZM110.2,24.966H87.964l-4.48-13.443h19.251ZM84.659,28.807V40.33a11.523,11.523,0,0,1-23.046,0V28.807ZM61.613,24.966V11.523h17.82l4.481,13.443ZM17.442,3.841h84.5V7.682h-84.5ZM35.471,24.966l4.48-13.443h17.82V24.966Zm22.3,3.841V40.33a11.523,11.523,0,1,1-23.046,0V28.807ZM16.65,11.523H35.9l-4.48,13.443H9.184ZM7.839,28.807H30.885V40.33a11.523,11.523,0,1,1-23.046,0Zm96.024,80.66H80.818V72.978h23.046Zm0-40.33H80.818v-2.3a3.457,3.457,0,0,1,3.457-3.457h16.132a3.457,3.457,0,0,1,3.457,3.457v2.3Zm7.682,40.33H107.7V66.833a7.3,7.3,0,0,0-7.3-7.3H84.274a7.3,7.3,0,0,0-7.3,7.3v42.635H7.839V50.459a15.326,15.326,0,0,0,24.966-2.708,15.348,15.348,0,0,0,26.887,0,15.348,15.348,0,0,0,26.887,0,15.328,15.328,0,0,0,24.966,2.708Zm0-69.137a11.523,11.523,0,0,1-23.046,0V28.807h23.046Z" transform="translate(-3.998)" fill="#fff"/>
    </g>
  </g>
</svg>
