<svg xmlns="http://www.w3.org/2000/svg" width="550" height="550" viewBox="0 0 550 550">
  <g id="Group_3703" data-name="Group 3703" transform="translate(-1115 -190)">
    <circle id="Ellipse_136" data-name="Ellipse 136" cx="220" cy="220" r="220" transform="translate(1170 245)" fill="#161616"/>
    <path id="Path_18616" data-name="Path 18616" d="M147.453,35c16.433,2.545,31.676,8.327,44.08,16.718,12,8.116,20.815,18.284,25.506,29.408a5,5,0,1,0,9.222-3.888c-5.446-12.914-15.516-24.605-29.121-33.81-13.62-9.214-30.272-15.549-48.158-18.32A5,5,0,0,0,147.453,35ZM50.216,72.542a5,5,0,1,0,1.722-5.993A5.117,5.117,0,0,0,50.216,72.542ZM74.324,53.907a5,5,0,1,0,1.693-5.971A5.111,5.111,0,0,0,74.324,53.907Zm25.9,18.634a5,5,0,1,0,1.722-5.993A5.12,5.12,0,0,0,100.224,72.542ZM256.2,161.595a25.353,25.353,0,0,0-16.925-23.878V125.194a21.484,21.484,0,0,0,4.541-2.316,19.758,19.758,0,0,0,8.966-16.587,19.55,19.55,0,0,0-3.71-11.515,16.146,16.146,0,0,0,.995-9.263c-4.284-22.917-19-43.894-41.433-59.072C186.292,11.325,157.691,3,128.1,3S69.911,11.325,47.567,26.441C25.133,41.617,10.418,62.6,6.134,85.513a16.134,16.134,0,0,0,2.09,11.4,19.46,19.46,0,0,0-2.369,9.382,19.756,19.756,0,0,0,8.968,16.589,21.789,21.789,0,0,0,2.1,1.239v13.6A25.353,25.353,0,0,0,0,161.595v1.016a25.246,25.246,0,0,0,8.069,18.507,19.732,19.732,0,0,0,2.9,22.334v18.057A35.026,35.026,0,0,0,45.952,256.5h164.3a35.026,35.026,0,0,0,34.987-34.987V205.721a19.761,19.761,0,0,0,4.441-26.169,25.205,25.205,0,0,0,6.525-16.941Zm-10.008,0v1.016a15.328,15.328,0,0,1-15.305,15.305H153.3l31.91-31.626h45.683A15.324,15.324,0,0,1,246.195,161.595ZM75.843,146.29l.794.8,5.133,5.131L71.025,162.963,54.352,146.29Zm47.246,33.092-30.7-30.7,0-.006L90,146.29h80.97l-33.442,33.073a.027.027,0,0,0-.006.008l-.014.012-7.209,7.209ZM15.97,87.35c3.79-20.266,17-38.954,37.205-52.622,20.706-14.007,47.314-21.72,74.926-21.72s54.22,7.713,74.926,21.72c20.2,13.667,33.413,32.356,37.205,52.622a6.288,6.288,0,0,1-6.116,7.35H22.086A6.285,6.285,0,0,1,15.97,87.35Zm.262,16.269a16.286,16.286,0,0,0,5.854,1.089H234.117a16.322,16.322,0,0,0,7.948-2.07,9.707,9.707,0,0,1,.712,3.651,9.894,9.894,0,0,1-4.539,8.28,11.788,11.788,0,0,1-10.081,1.39c-1.667-.527-3.241-1.208-4.961-1.575a27.045,27.045,0,0,0-5.666-.575c-8.939,0-13.735,3.386-17.588,6.1-3.381,2.388-6.051,4.275-11.814,4.275s-8.433-1.886-11.814-4.273c-3.853-2.723-8.648-6.107-17.588-6.107s-13.733,3.386-17.586,6.107c-3.382,2.386-6.052,4.273-11.814,4.273s-8.434-1.886-11.816-4.275c-3.853-2.721-8.647-6.1-17.586-6.1s-13.735,3.386-17.588,6.1c-3.382,2.388-6.054,4.275-11.814,4.275S62.086,122.3,58.7,119.913c-3.853-2.721-8.647-6.1-17.588-6.1a25.337,25.337,0,0,0-9.748,1.833A11.808,11.808,0,0,1,20.4,114.571a9.894,9.894,0,0,1-4.539-8.28A9.625,9.625,0,0,1,16.232,103.619Zm11.7,22.887a24.3,24.3,0,0,0,7.531-1.72,17.24,17.24,0,0,1,7.678-.884c4.417.393,6.833,2.1,9.793,4.187,3.853,2.721,8.648,6.107,17.588,6.107s13.733-3.386,17.586-6.107c3.382-2.386,6.054-4.273,11.816-4.273s8.432,1.886,11.814,4.273c3.853,2.721,8.649,6.107,17.588,6.107s13.734-3.386,17.586-6.107c3.382-2.386,6.054-4.273,11.814-4.273s8.435,1.886,11.816,4.273c3.853,2.721,8.647,6.107,17.586,6.107s13.733-3.386,17.586-6.107c3.383-2.386,6.053-4.273,11.816-4.273a16.2,16.2,0,0,1,5.958,1.089,23.178,23.178,0,0,0,5.782,1.49v9.888H26.933v-9.75C27.266,126.531,27.6,126.522,27.929,126.506ZM10.008,161.595A15.324,15.324,0,0,1,25.313,146.29H40.2l27.287,27.289a5.007,5.007,0,0,0,7.076,0l14.285-14.285,18.622,18.622H25.313a15.327,15.327,0,0,1-15.305-15.305Zm6.681,24.814a25.386,25.386,0,0,0,8.624,1.515h92.165l9.28,9.281a5.056,5.056,0,0,0,7.061.016l9.38-9.3h87.688a25.456,25.456,0,0,0,8.308-1.4,12.752,12.752,0,0,0,1.655-.659c.17-.088.416-.284.618-.27.277.02.35.374.449.6a9.688,9.688,0,0,1,.854,3.814,10.413,10.413,0,0,1-7.754,9.957,11.847,11.847,0,0,1-7.748-.426,25.279,25.279,0,0,0-9.742-1.833c-8.939,0-13.733,3.385-17.586,6.106-3.383,2.388-6.053,4.275-11.816,4.275s-8.432-1.887-11.814-4.275c-3.853-2.721-8.648-6.106-17.586-6.106s-13.733,3.385-17.588,6.106c-3.382,2.388-6.052,4.275-11.814,4.275s-8.432-1.887-11.816-4.275c-3.853-2.721-8.647-6.106-17.586-6.106s-13.734,3.385-17.588,6.106c-3.382,2.388-6.052,4.275-11.814,4.275s-8.435-1.889-11.816-4.275c-3.855-2.721-8.649-6.106-17.59-6.106a25.274,25.274,0,0,0-9.746,1.835,11.8,11.8,0,0,1-10.157-.579,10.261,10.261,0,0,1-5.235-7.291,9.879,9.879,0,0,1-.028-2.8C15.983,188.6,16.443,186.319,16.689,186.409Zm218.54,35.1a25.008,25.008,0,0,1-24.979,24.979H45.952a25.008,25.008,0,0,1-24.979-24.979V209.64a21.675,21.675,0,0,0,12.77-.322c.086-.03.172-.059.256-.086.385-.135.77-.274,1.149-.43a15.494,15.494,0,0,1,5.964-1.09c5.765,0,8.435,1.884,11.816,4.273,3.855,2.721,8.65,6.106,17.59,6.106S84.252,214.7,88.1,211.984c3.382-2.389,6.054-4.273,11.814-4.273s8.434,1.884,11.816,4.273c3.853,2.721,8.647,6.106,17.588,6.106s13.734-3.386,17.586-6.106c3.382-2.389,6.054-4.273,11.814-4.273s8.435,1.884,11.814,4.273c3.853,2.721,8.649,6.106,17.588,6.106s13.733-3.386,17.586-6.106c3.381-2.389,6.053-4.273,11.816-4.273a16.534,16.534,0,0,1,4.427.566c1.37.381,2.664.983,4.034,1.371a21.589,21.589,0,0,0,9.238.52v11.341ZM113.045,53.907a5,5,0,1,0,1.728-5.993A5.11,5.11,0,0,0,113.045,53.907Zm22.573,22.057a5,5,0,1,0,1.722-5.993A5.115,5.115,0,0,0,135.617,75.964ZM122.841,31.034a5.006,5.006,0,1,0-1.9-5.934A5.107,5.107,0,0,0,122.841,31.034Z" transform="translate(1260.969 335.252)" fill="#fff"/>
    <g id="Ellipse_137" data-name="Ellipse 137" transform="translate(1115 190)" fill="none" stroke="#131626" stroke-width="4">
      <circle cx="275" cy="275" r="275" stroke="none"/>
      <circle cx="275" cy="275" r="273" fill="none"/>
    </g>
    <circle id="Ellipse_138" data-name="Ellipse 138" cx="6.866" cy="6.866" r="6.866" transform="translate(1247.238 252.908)" fill="#161616"/>
    <circle id="Ellipse_139" data-name="Ellipse 139" cx="6.866" cy="6.866" r="6.866" transform="translate(1531.269 266.639)" fill="#161616"/>
    <circle id="Ellipse_140" data-name="Ellipse 140" cx="6.866" cy="6.866" r="6.866" transform="translate(1377.461 705.882)" fill="#161616"/>
    <circle id="Ellipse_141" data-name="Ellipse 141" cx="6.866" cy="6.866" r="6.866" transform="translate(1149.583 534.445)" fill="#161616"/>
    <circle id="Ellipse_156" data-name="Ellipse 156" cx="6.866" cy="6.866" r="6.866" transform="translate(1614.583 534.445)" fill="#161616"/>
    <g id="Group_3701" data-name="Group 3701" transform="translate(1033.687 -161.981)">
      <g id="Group_3700" data-name="Group 3700" transform="translate(98.314 368.981)">
        <path id="Path_18741" data-name="Path 18741" d="M162.49,396.526a13.133,13.133,0,0,0,3.421-1.411,7.336,7.336,0,0,0,2.182-1.973,5.942,5.942,0,0,0,1.032-2.512,9.071,9.071,0,0,0-.052-3.038,7.748,7.748,0,0,1-1.805,2.122,6.69,6.69,0,0,1-2.526,1.3,8.018,8.018,0,0,1-3.568.228,7.257,7.257,0,0,1-2.991-1.246,8.588,8.588,0,0,1-2.293-2.482,12.883,12.883,0,0,1-1.491-3.494,11.227,11.227,0,0,1-.367-3.9,9.651,9.651,0,0,1,.993-3.553,8.906,8.906,0,0,1,2.29-2.856,9.273,9.273,0,0,1,3.545-1.8,9,9,0,0,1,3.987-.231,8.446,8.446,0,0,1,3.489,1.468,10.963,10.963,0,0,1,2.782,3,15.438,15.438,0,0,1,1.868,4.353l.511,1.888a21.249,21.249,0,0,1,.793,6.317,13.323,13.323,0,0,1-1.3,5.4,11.957,11.957,0,0,1-3.47,4.195,16.357,16.357,0,0,1-5.753,2.724l-.426.119-1.216-4.506Zm2.451-10.006a3.871,3.871,0,0,0,2.051-1.286,4.717,4.717,0,0,0,.98-2.016l-.6-2.225a10.186,10.186,0,0,0-.973-2.463,5.612,5.612,0,0,0-1.291-1.58,3.5,3.5,0,0,0-1.5-.744,3.394,3.394,0,0,0-1.605.06,2.967,2.967,0,0,0-1.458.873,4.1,4.1,0,0,0-.845,1.487,5.856,5.856,0,0,0-.262,1.858,8.069,8.069,0,0,0,.285,2.01,7.975,7.975,0,0,0,.77,1.9,5.369,5.369,0,0,0,1.15,1.418,3.5,3.5,0,0,0,1.491.777A3.583,3.583,0,0,0,164.941,386.52Z" transform="translate(28.429 -363.067)" fill="#161616"/>
        <path id="Path_18742" data-name="Path 18742" d="M180.458,372.723,174,399.267l-5.77,1,6.71-25.172-13.7,2.367-.763-4.469,19.455-3.362Z" transform="translate(43.198 -367.487)" fill="#161616"/>
        <path id="Path_18743" data-name="Path 18743" d="M186.131,376.325a6.628,6.628,0,0,1-.75,3.709,7.359,7.359,0,0,1-2.608,2.737,8.127,8.127,0,0,1,3.414,2.473,6.983,6.983,0,0,1,1.484,3.977,8.2,8.2,0,0,1-.446,3.57,7.223,7.223,0,0,1-1.779,2.678,8.581,8.581,0,0,1-2.864,1.758,14.05,14.05,0,0,1-7.493.559,8.58,8.58,0,0,1-3.113-1.309,7.21,7.21,0,0,1-2.166-2.383,8.1,8.1,0,0,1-.976-3.461,7.06,7.06,0,0,1,.888-4.165,7.983,7.983,0,0,1,3-2.945,7.266,7.266,0,0,1-2.972-2.321,6.629,6.629,0,0,1-1.271-3.557,8.2,8.2,0,0,1,.413-3.421,7.008,7.008,0,0,1,1.648-2.6,7.842,7.842,0,0,1,2.674-1.722,12.565,12.565,0,0,1,7.1-.532,7.948,7.948,0,0,1,2.906,1.306A6.838,6.838,0,0,1,185.23,373,8.189,8.189,0,0,1,186.131,376.325Zm-5.514.684a3.88,3.88,0,0,0-1.055-2.572,3.05,3.05,0,0,0-2.506-.813,3.086,3.086,0,0,0-2.343,1.144,3.9,3.9,0,0,0-.665,2.73,4.1,4.1,0,0,0,1.062,2.641,3.4,3.4,0,0,0,4.856-.364A4.139,4.139,0,0,0,180.617,377.009Zm1.474,12.221a4.691,4.691,0,0,0-.4-1.659,3.384,3.384,0,0,0-2.159-1.927,4.452,4.452,0,0,0-1.622-.159,4.324,4.324,0,0,0-1.569.4,3.438,3.438,0,0,0-1.153.892,3.526,3.526,0,0,0-.691,1.332,5.159,5.159,0,0,0,.246,3.352,3.573,3.573,0,0,0,.878,1.206,3.344,3.344,0,0,0,1.281.7,4.6,4.6,0,0,0,1.638.149,3.752,3.752,0,0,0,2.746-1.273A4.055,4.055,0,0,0,182.091,389.23Z" transform="translate(61.344 -368.745)" fill="#161616"/>
        <path id="Path_18744" data-name="Path 18744" d="M196.045,385.952l-11.038-.671-.452,7.54,12.955.787-.279,4.661-18.7-1.137,1.681-28.15,18.662,1.134-.282,4.7-12.912-.787-.4,6.71,11.035.668Z" transform="translate(84.288 -368.981)" fill="#161616"/>
        <path id="Path_18745" data-name="Path 18745" d="M203.178,393.258l-9.963-1.65-2.828,5.421-6.045-1L199.135,369.9l5.268.873,5.8,29.539-6.038-1Zm-7.677-6.039,6.9,1.14-1.773-10.988Z" transform="translate(97.519 -366.86)" fill="#161616"/>
        <path id="Path_18746" data-name="Path 18746" d="M215.461,381.233,207.188,379l-6.015,22.7-5.563-1.5,6.015-22.7-8.161-2.2,1.206-4.548,21.994,5.934Z" transform="translate(118.281 -364.893)" fill="#161616"/>
        <path id="Path_18747" data-name="Path 18747" d="M214.165,396.142a3.98,3.98,0,0,0,.269-1.316,2.558,2.558,0,0,0-.38-1.316,7.347,7.347,0,0,0-1.212-1.524,26.618,26.618,0,0,0-2.212-1.947,33.011,33.011,0,0,1-2.89-2.6,13.324,13.324,0,0,1-2.139-2.777,8.2,8.2,0,0,1-1.025-2.995,6.65,6.65,0,0,1,.442-3.269,6.851,6.851,0,0,1,1.841-2.744,7.206,7.206,0,0,1,2.87-1.563,10.323,10.323,0,0,1,3.614-.321,14.212,14.212,0,0,1,4.086.955,13.182,13.182,0,0,1,3.719,2.119,9.821,9.821,0,0,1,2.4,2.856,8.114,8.114,0,0,1,.967,3.322,8.341,8.341,0,0,1-.55,3.53l-5.383-2.063a4.71,4.71,0,0,0,.318-1.64,3.322,3.322,0,0,0-.341-1.521,4.028,4.028,0,0,0-1.048-1.3,6.241,6.241,0,0,0-1.8-1.011,6.8,6.8,0,0,0-1.927-.469,3.989,3.989,0,0,0-1.537.155,2.968,2.968,0,0,0-1.14.681,3.03,3.03,0,0,0-.711,1.1,2.765,2.765,0,0,0,.5,2.687,15.98,15.98,0,0,0,3.25,3.12,27.221,27.221,0,0,1,3.2,2.926,12.181,12.181,0,0,1,2.015,2.889,7.593,7.593,0,0,1,.77,2.945,7.752,7.752,0,0,1-.544,3.127,7.27,7.27,0,0,1-1.841,2.84,6.744,6.744,0,0,1-2.772,1.557,9.6,9.6,0,0,1-3.525.284,15.292,15.292,0,0,1-4.089-1,16.02,16.02,0,0,1-2.5-1.216,13.3,13.3,0,0,1-2.205-1.646,11.637,11.637,0,0,1-1.736-2.01,8.718,8.718,0,0,1-1.124-2.337,8.107,8.107,0,0,1-.344-2.631,8.92,8.92,0,0,1,.6-2.869l5.406,2.072a5.222,5.222,0,0,0-.39,2.172,3.755,3.755,0,0,0,.541,1.752,4.718,4.718,0,0,0,1.343,1.375,9.375,9.375,0,0,0,2.028,1.048,6.867,6.867,0,0,0,1.9.466,3.856,3.856,0,0,0,1.51-.135,2.6,2.6,0,0,0,1.1-.664A3.146,3.146,0,0,0,214.165,396.142Z" transform="translate(131.88 -358.022)" fill="#161616"/>
        <path id="Path_18748" data-name="Path 18748" d="M237.211,415.07a13.287,13.287,0,0,0,2.474,2.77,7.316,7.316,0,0,0,2.582,1.4,5.773,5.773,0,0,0,2.69.129,8.856,8.856,0,0,0,2.814-1.078,7.663,7.663,0,0,1-2.592-.995,6.669,6.669,0,0,1-2.061-1.96,8.166,8.166,0,0,1-1.422-3.306,7.4,7.4,0,0,1,.147-3.266,8.636,8.636,0,0,1,1.54-3.015,12.571,12.571,0,0,1,2.752-2.6,10.955,10.955,0,0,1,3.519-1.673,9.39,9.39,0,0,1,3.647-.265,8.874,8.874,0,0,1,3.443,1.21,9.368,9.368,0,0,1,2.877,2.753,9.252,9.252,0,0,1,1.566,3.706A8.67,8.67,0,0,1,261,412.7a10.927,10.927,0,0,1-1.858,3.653,15.291,15.291,0,0,1-3.427,3.253l-1.589,1.121a20.539,20.539,0,0,1-5.622,2.889,12.907,12.907,0,0,1-5.472.6,11.733,11.733,0,0,1-5.091-1.874,16.54,16.54,0,0,1-4.489-4.535l-.252-.367,3.787-2.678Zm10.16-1.061a3.909,3.909,0,0,0,1.894,1.511,4.546,4.546,0,0,0,2.212.245l1.874-1.322a10.345,10.345,0,0,0,1.966-1.755,5.7,5.7,0,0,0,1.039-1.762,3.585,3.585,0,0,0,.18-1.679,3.471,3.471,0,0,0-.6-1.5,3,3,0,0,0-1.307-1.088,3.914,3.914,0,0,0-1.671-.294,5.748,5.748,0,0,0-1.822.377,7.785,7.785,0,0,0-1.779.949,8.015,8.015,0,0,0-1.507,1.375,5.319,5.319,0,0,0-.934,1.573,3.633,3.633,0,0,0-.219,1.676A3.7,3.7,0,0,0,247.371,414.009Z" transform="translate(208.74 -294.827)" fill="#161616"/>
        <path id="Path_18749" data-name="Path 18749" d="M266.573,425.026,239.632,427.9l-2.89-5.137,25.749-2.172-6.854-12.2,3.905-2.238,9.734,17.321Z" transform="translate(216.8 -283.267)" fill="#161616"/>
        <path id="Path_18750" data-name="Path 18750" d="M264.211,430.854a6.422,6.422,0,0,1-3.709.545,7.3,7.3,0,0,1-3.44-1.544,8.249,8.249,0,0,1-1.15,4.079,6.933,6.933,0,0,1-3.2,2.757,8.025,8.025,0,0,1-3.483.78,7.108,7.108,0,0,1-3.1-.777,8.483,8.483,0,0,1-2.611-2.125,14.337,14.337,0,0,1-3.06-6.922,8.727,8.727,0,0,1,.167-3.4,7.258,7.258,0,0,1,1.487-2.863,7.984,7.984,0,0,1,2.9-2.1,6.916,6.916,0,0,1,4.184-.569,7.986,7.986,0,0,1,3.761,1.851,7.351,7.351,0,0,1,1.16-3.61,6.551,6.551,0,0,1,2.88-2.41,7.923,7.923,0,0,1,3.332-.767,6.922,6.922,0,0,1,2.982.681,7.974,7.974,0,0,1,2.516,1.954,12.849,12.849,0,0,1,2.9,6.565,8.092,8.092,0,0,1-.233,3.2,6.9,6.9,0,0,1-1.491,2.7A8.067,8.067,0,0,1,264.211,430.854Zm-13.4.539a4.571,4.571,0,0,0,1.409-.942,3.439,3.439,0,0,0,1.068-2.7,4.542,4.542,0,0,0-.4-1.593,4.457,4.457,0,0,0-.9-1.352,3.463,3.463,0,0,0-1.225-.8,3.516,3.516,0,0,0-1.478-.2,4.718,4.718,0,0,0-1.638.426,4.78,4.78,0,0,0-1.4.942,3.59,3.59,0,0,0-.829,1.243,3.366,3.366,0,0,0-.216,1.454,4.69,4.69,0,0,0,.416,1.6,3.787,3.787,0,0,0,2.117,2.178A3.959,3.959,0,0,0,250.808,431.392Zm10.9-5.537a3.853,3.853,0,0,0,2.041-1.878,3.545,3.545,0,0,0-1.953-4.482,3.778,3.778,0,0,0-2.769.291,4.005,4.005,0,0,0-2.1,1.9,3.08,3.08,0,0,0,.062,2.668,3,3,0,0,0,1.917,1.815A4.011,4.011,0,0,0,261.7,425.856Z" transform="translate(225.05 -265.694)" fill="#161616"/>
        <path id="Path_18751" data-name="Path 18751" d="M259.7,443.833l-3.086-10.713-7.188,2.109,3.617,12.571-4.443,1.3-5.226-18.154,26.847-7.861,5.209,18.114-4.479,1.312-3.6-12.535-6.4,1.871,3.086,10.713Z" transform="translate(231.886 -244.236)" fill="#161616"/>
        <path id="Path_18752" data-name="Path 18752" d="M253.934,448.018l-1.8-10.026-6.012-.869-1.091-6.082,29.36,5.305.95,5.3L249.7,457.056l-1.091-6.079ZM257,438.7l1.242,6.938,9.672-5.368Z" transform="translate(235.671 -225.897)" fill="#161616"/>
        <path id="Path_18753" data-name="Path 18753" d="M270.932,460.9l-.695-8.608-23.21,1.9-.465-5.791,23.21-1.9-.681-8.5,4.646-.38,1.845,22.894Z" transform="translate(239.154 -210.724)" fill="#161616"/>
        <path id="Path_18754" data-name="Path 18754" d="M254.37,461.4a3.789,3.789,0,0,0,1.32-.192,2.549,2.549,0,0,0,1.1-.8,7.5,7.5,0,0,0,1.006-1.669,26.707,26.707,0,0,0,1.071-2.757,34.431,34.431,0,0,1,1.448-3.626,13.457,13.457,0,0,1,1.868-2.968,8.148,8.148,0,0,1,2.447-1.987,6.552,6.552,0,0,1,3.2-.687,6.766,6.766,0,0,1,3.185.826,7.2,7.2,0,0,1,2.424,2.195,10.658,10.658,0,0,1,1.524,3.322,14.663,14.663,0,0,1,.488,4.2,13.269,13.269,0,0,1-.724,4.248,9.721,9.721,0,0,1-1.851,3.236,7.9,7.9,0,0,1-2.775,2.04,8.088,8.088,0,0,1-3.476.674l.1-5.808a4.7,4.7,0,0,0,1.638-.251,3.373,3.373,0,0,0,1.3-.836,4.051,4.051,0,0,0,.862-1.438,6.421,6.421,0,0,0,.337-2.049,7,7,0,0,0-.216-1.99,4.069,4.069,0,0,0-.665-1.4,2.851,2.851,0,0,0-1.019-.853,2.919,2.919,0,0,0-1.261-.3,2.711,2.711,0,0,0-2.339,1.378,16.087,16.087,0,0,0-1.815,4.142,27.443,27.443,0,0,1-1.651,4.03,12.055,12.055,0,0,1-2.008,2.886,7.5,7.5,0,0,1-2.49,1.725,7.681,7.681,0,0,1-3.1.542,7.261,7.261,0,0,1-3.266-.787,6.8,6.8,0,0,1-2.392-2.109,9.85,9.85,0,0,1-1.458-3.253,15.783,15.783,0,0,1-.449-4.221,16.311,16.311,0,0,1,.292-2.783,13.543,13.543,0,0,1,.786-2.651,11.783,11.783,0,0,1,1.291-2.33,8.757,8.757,0,0,1,1.8-1.854,7.986,7.986,0,0,1,2.336-1.216,8.6,8.6,0,0,1,2.88-.4l-.111,5.831a5.141,5.141,0,0,0-2.156.364,3.677,3.677,0,0,0-1.448,1.107,4.708,4.708,0,0,0-.829,1.735,9.709,9.709,0,0,0-.295,2.284,7.1,7.1,0,0,0,.206,1.96,4.016,4.016,0,0,0,.636,1.388,2.633,2.633,0,0,0,.993.82A3.077,3.077,0,0,0,254.37,461.4Z" transform="translate(239.543 -192.286)" fill="#161616"/>
        <path id="Path_18755" data-name="Path 18755" d="M239.221,492.1a13.321,13.321,0,0,0-1.884,3.2,7.465,7.465,0,0,0-.564,2.9,6.008,6.008,0,0,0,.675,2.634,9.043,9.043,0,0,0,1.858,2.393,7.872,7.872,0,0,1,.174-2.793,6.907,6.907,0,0,1,1.238-2.568,8.1,8.1,0,0,1,2.716-2.35,7.148,7.148,0,0,1,3.132-.826,8.455,8.455,0,0,1,3.309.585,12.624,12.624,0,0,1,3.276,1.884,11.026,11.026,0,0,1,2.624,2.892,9.579,9.579,0,0,1,1.333,3.438,9.006,9.006,0,0,1-.124,3.676,9.388,9.388,0,0,1-1.753,3.587,9.027,9.027,0,0,1-3.044,2.608,8.346,8.346,0,0,1-3.663.948,10.619,10.619,0,0,1-4.01-.7,15.047,15.047,0,0,1-4.092-2.337l-1.537-1.193a20.961,20.961,0,0,1-4.4-4.562,13.3,13.3,0,0,1-2.185-5.1,12.1,12.1,0,0,1,.265-5.457,16.643,16.643,0,0,1,2.962-5.672l.272-.354,3.66,2.856Zm4.023,9.477a3.929,3.929,0,0,0-.872,2.271,4.739,4.739,0,0,0,.426,2.2l1.805,1.408a10.277,10.277,0,0,0,2.248,1.375,5.54,5.54,0,0,0,1.976.479,3.585,3.585,0,0,0,1.645-.324,3.435,3.435,0,0,0,1.245-1.025,3.008,3.008,0,0,0,.642-1.58,4.062,4.062,0,0,0-.216-1.7,5.758,5.758,0,0,0-.9-1.643,8.1,8.1,0,0,0-3.172-2.476,5.381,5.381,0,0,0-1.766-.436,3.425,3.425,0,0,0-3.06,1.445Z" transform="translate(206.238 -92.409)" fill="#161616"/>
        <path id="Path_18756" data-name="Path 18756" d="M238.906,523.242l-10.724-25.1,4-4.311,9.7,24.16,9.511-10.227,3.276,3.1-13.505,14.525Z" transform="translate(197.314 -81.119)" fill="#161616"/>
        <path id="Path_18757" data-name="Path 18757" d="M232.9,523.762a6.594,6.594,0,0,1-1.625-3.408,7.44,7.44,0,0,1,.442-3.775,8.033,8.033,0,0,1-4.207.109,6.875,6.875,0,0,1-3.561-2.261,8.136,8.136,0,0,1-1.776-3.12,7.191,7.191,0,0,1-.19-3.216,8.672,8.672,0,0,1,1.232-3.144,14.218,14.218,0,0,1,5.639-5.018,8.6,8.6,0,0,1,3.263-.85,7.181,7.181,0,0,1,3.152.578,8.048,8.048,0,0,1,2.85,2.165,7.077,7.077,0,0,1,1.786,3.861,8.063,8.063,0,0,1-.629,4.172,7.173,7.173,0,0,1,3.761.043,6.544,6.544,0,0,1,3.142,2.059,8.059,8.059,0,0,1,1.717,2.975,7.132,7.132,0,0,1,.242,3.077,8,8,0,0,1-1.1,3,11.983,11.983,0,0,1-2.333,2.763,11.763,11.763,0,0,1-3.008,1.987,7.932,7.932,0,0,1-3.1.731,6.732,6.732,0,0,1-2.995-.628A8.048,8.048,0,0,1,232.9,523.762ZM228.4,511.02a4.867,4.867,0,0,0,1.31,1.078,3.614,3.614,0,0,0,1.432.433,3.4,3.4,0,0,0,1.445-.218,4.765,4.765,0,0,0,2.4-2.129,3.585,3.585,0,0,0,.387-1.418,3.656,3.656,0,0,0-.246-1.484,4.88,4.88,0,0,0-.9-1.451,4.706,4.706,0,0,0-1.307-1.071,3.564,3.564,0,0,0-1.422-.426,3.324,3.324,0,0,0-1.442.221,4.664,4.664,0,0,0-1.4.879,3.811,3.811,0,0,0-1.422,2.691A4.046,4.046,0,0,0,228.4,511.02Zm8.492,8.839a3.847,3.847,0,0,0,2.379,1.408,3.055,3.055,0,0,0,2.484-.879,3.117,3.117,0,0,0,1.183-2.34,3.875,3.875,0,0,0-1.1-2.582,4,4,0,0,0-2.428-1.454,2.992,2.992,0,0,0-2.5.856,3.026,3.026,0,0,0-1.15,2.386A4.079,4.079,0,0,0,236.888,519.858Z" transform="translate(182.983 -69.045)" fill="#161616"/>
        <path id="Path_18758" data-name="Path 18758" d="M221.286,523.987l9.207-6.175-4.141-6.294-10.809,7.253-2.562-3.891,15.6-10.462L244.056,527.9l-15.573,10.446-2.582-3.921,10.776-7.226-3.686-5.6-9.21,6.178Z" transform="translate(162.709 -56.721)" fill="#161616"/>
        <path id="Path_18759" data-name="Path 18759" d="M215.642,521.337l8.941-4.74-.98-6.043,5.422-2.872,3.788,29.846-4.728,2.5-22.26-20.058,5.422-2.873Zm9.734.155-6.189,3.279,7.978,7.7Z" transform="translate(146.424 -49.196)" fill="#161616"/>
        <path id="Path_18760" data-name="Path 18760" d="M203.173,539.287l7.935-3.246-8.751-21.774,5.337-2.182,8.751,21.774,7.827-3.2,1.753,4.36-21.1,8.634Z" transform="translate(138.527 -39.044)" fill="#161616"/>
        <path id="Path_18761" data-name="Path 18761" d="M199.71,523.83a3.819,3.819,0,0,0,.57,1.216,2.571,2.571,0,0,0,1.088.823,7.513,7.513,0,0,0,1.874.476,26.2,26.2,0,0,0,2.929.212,33.046,33.046,0,0,1,3.86.317,13.337,13.337,0,0,1,3.368.922,7.986,7.986,0,0,1,2.6,1.765,6.651,6.651,0,0,1,1.6,2.879,6.988,6.988,0,0,1,.164,3.309,7.34,7.34,0,0,1-1.36,2.991,10.491,10.491,0,0,1-2.693,2.453,14.261,14.261,0,0,1-3.83,1.719,13.06,13.06,0,0,1-4.236.569,9.675,9.675,0,0,1-3.614-.826,7.947,7.947,0,0,1-2.755-2.066,8.367,8.367,0,0,1-1.671-3.15l5.534-1.626a4.662,4.662,0,0,0,.721,1.5,3.331,3.331,0,0,0,1.18,1.005,3.951,3.951,0,0,0,1.615.4,6.178,6.178,0,0,0,2.038-.284,6.78,6.78,0,0,0,1.822-.8,3.961,3.961,0,0,0,1.13-1.058,2.959,2.959,0,0,0,.508-1.236,3.043,3.043,0,0,0-.088-1.306,2.726,2.726,0,0,0-2-1.841,15.652,15.652,0,0,0-4.456-.522,26.652,26.652,0,0,1-4.3-.39,11.824,11.824,0,0,1-3.329-1.081,7.5,7.5,0,0,1-2.375-1.884,7.872,7.872,0,0,1-1.435-2.829,7.344,7.344,0,0,1-.223-3.382,6.919,6.919,0,0,1,1.284-2.929,9.752,9.752,0,0,1,2.644-2.37,15.216,15.216,0,0,1,3.863-1.686,15.715,15.715,0,0,1,2.723-.545,12.683,12.683,0,0,1,2.742-.03,11.453,11.453,0,0,1,2.588.552,8.6,8.6,0,0,1,2.287,1.183,8,8,0,0,1,1.848,1.887,8.951,8.951,0,0,1,1.235,2.655l-5.553,1.626a5.226,5.226,0,0,0-.983-1.967,3.711,3.711,0,0,0-1.481-1.071,4.7,4.7,0,0,0-1.89-.281,9.43,9.43,0,0,0-2.244.4,6.829,6.829,0,0,0-1.8.78,3.978,3.978,0,0,0-1.124,1.021,2.665,2.665,0,0,0-.482,1.2A3.085,3.085,0,0,0,199.71,523.83Z" transform="translate(119.141 -33.491)" fill="#161616"/>
        <path id="Path_18762" data-name="Path 18762" d="M166.565,518.846a13.084,13.084,0,0,0-3.594-.859,7.274,7.274,0,0,0-2.916.324,5.893,5.893,0,0,0-2.287,1.434,8.887,8.887,0,0,0-1.707,2.5,7.732,7.732,0,0,1,2.69-.668,6.69,6.69,0,0,1,2.8.43,8.128,8.128,0,0,1,3.034,1.911,7.391,7.391,0,0,1,1.717,2.77,8.768,8.768,0,0,1,.429,3.365,12.757,12.757,0,0,1-.8,3.719,11.107,11.107,0,0,1-1.953,3.388,9.565,9.565,0,0,1-2.854,2.307,8.859,8.859,0,0,1-3.516.978,9.253,9.253,0,0,1-3.919-.618,9.137,9.137,0,0,1-3.375-2.152,8.538,8.538,0,0,1-1.992-3.246,10.958,10.958,0,0,1-.531-4.072,15.5,15.5,0,0,1,.989-4.638l.675-1.835a21.035,21.035,0,0,1,3-5.6,13.075,13.075,0,0,1,4.171-3.626,11.743,11.743,0,0,1,5.245-1.375,16.345,16.345,0,0,1,6.245,1.164l.416.155-1.609,4.377Zm-7.765,6.7a3.913,3.913,0,0,0-2.411-.159,4.64,4.64,0,0,0-1.956,1.068l-.8,2.159a10.374,10.374,0,0,0-.629,2.575,5.74,5.74,0,0,0,.138,2.043,3.636,3.636,0,0,0,.8,1.491,3.448,3.448,0,0,0,1.34.892,2.984,2.984,0,0,0,1.687.146,4,4,0,0,0,1.543-.714,5.7,5.7,0,0,0,1.284-1.359,8.358,8.358,0,0,0,1.4-3.792,5.346,5.346,0,0,0-.115-1.831,3.612,3.612,0,0,0-.763-1.507A3.663,3.663,0,0,0,158.8,525.543Z" transform="translate(14.285 -36.292)" fill="#161616"/>
        <path id="Path_18763" data-name="Path 18763" d="M141.366,528.51l20.559-17.8,5.272,2.575-19.976,16.535,12.506,6.115-1.956,4.079-17.761-8.684Z" transform="translate(-3.397 -42.208)" fill="#161616"/>
        <path id="Path_18764" data-name="Path 18764" d="M135.8,521.923a6.543,6.543,0,0,1,2.749-2.575,7.277,7.277,0,0,1,3.7-.694,8.274,8.274,0,0,1-1.353-4.016,7.056,7.056,0,0,1,1.088-4.109,8.126,8.126,0,0,1,2.421-2.638,7.1,7.1,0,0,1,2.991-1.134,8.365,8.365,0,0,1,3.342.251,14.084,14.084,0,0,1,6.418,3.947,8.6,8.6,0,0,1,1.773,2.892,7.306,7.306,0,0,1,.39,3.206,8.144,8.144,0,0,1-1.2,3.391,7,7,0,0,1-3.126,2.866,7.924,7.924,0,0,1-4.135.631,7.37,7.37,0,0,1,1.075,3.633,6.63,6.63,0,0,1-1.012,3.636,8.078,8.078,0,0,1-2.31,2.542,6.982,6.982,0,0,1-2.841,1.147,7.863,7.863,0,0,1-3.168-.169A11.79,11.79,0,0,1,139.3,533.3a11.941,11.941,0,0,1-2.778-2.307,8.132,8.132,0,0,1-1.609-2.77,6.93,6.93,0,0,1-.292-3.071A8.222,8.222,0,0,1,135.8,521.923Zm4.882,2.681a3.915,3.915,0,0,0-.629,2.714,3.1,3.1,0,0,0,1.569,2.129,3.064,3.064,0,0,0,2.565.443,3.819,3.819,0,0,0,2.117-1.831,4.093,4.093,0,0,0,.662-2.767,3.051,3.051,0,0,0-1.556-2.155,2.969,2.969,0,0,0-2.6-.4A4.042,4.042,0,0,0,140.681,524.6Zm5.848-10.806a4.733,4.733,0,0,0-.629,1.583,3.587,3.587,0,0,0,.01,1.507,3.489,3.489,0,0,0,.636,1.332,4.431,4.431,0,0,0,1.225,1.081,4.339,4.339,0,0,0,1.5.6,3.465,3.465,0,0,0,1.455-.049,3.513,3.513,0,0,0,1.33-.678,4.779,4.779,0,0,0,1.107-1.3,4.686,4.686,0,0,0,.629-1.574,3.592,3.592,0,0,0-.02-1.5,3.31,3.31,0,0,0-.642-1.322,4.542,4.542,0,0,0-1.242-1.084,3.756,3.756,0,0,0-2.968-.578A4.028,4.028,0,0,0,146.529,513.8Z" transform="translate(-15.804 -51.488)" fill="#161616"/>
        <path id="Path_18765" data-name="Path 18765" d="M136.4,510.6l8.578,7.041,4.725-5.861-10.065-8.264,2.916-3.62,14.537,11.93L139.446,533.7l-14.5-11.907,2.945-3.649,10.036,8.237,4.207-5.213-8.581-7.041Z" transform="translate(-37.697 -67.142)" fill="#161616"/>
        <path id="Path_18766" data-name="Path 18766" d="M134.758,504.057l7.142,7.2,5.429-2.737,4.328,4.37-27.122,12.518-3.771-3.811,12.365-27.4,4.331,4.37Zm2.742,9.421-4.941-4.985-4.915,9.97Z" transform="translate(-47.206 -80.296)" fill="#161616"/>
        <path id="Path_18767" data-name="Path 18767" d="M117.573,499.535l5.439,6.674L141,491.288l3.656,4.489L126.671,510.7l5.363,6.585-3.6,2.992-14.459-17.744Z" transform="translate(-62.669 -86.993)" fill="#161616"/>
        <path id="Path_18768" data-name="Path 18768" d="M127.78,490.506a3.878,3.878,0,0,0-.98.916,2.61,2.61,0,0,0-.452,1.289,7.608,7.608,0,0,0,.108,1.95,28.2,28.2,0,0,0,.678,2.883,33.7,33.7,0,0,1,.855,3.811,13.542,13.542,0,0,1,.138,3.517,8.211,8.211,0,0,1-.888,3.038,6.608,6.608,0,0,1-2.244,2.4,6.712,6.712,0,0,1-3.08,1.15,7.184,7.184,0,0,1-3.237-.41,10.557,10.557,0,0,1-3.126-1.855,14.8,14.8,0,0,1-2.775-3.177,13.364,13.364,0,0,1-1.8-3.907,9.87,9.87,0,0,1-.3-3.729,8.036,8.036,0,0,1,1.13-3.269,8.168,8.168,0,0,1,2.477-2.552l3.191,4.839a4.669,4.669,0,0,0-1.2,1.147,3.362,3.362,0,0,0-.6,1.435,4.049,4.049,0,0,0,.1,1.676,6.281,6.281,0,0,0,.878,1.878,7.054,7.054,0,0,0,1.3,1.514,4.011,4.011,0,0,0,1.34.773,2.891,2.891,0,0,0,2.529-.36,2.752,2.752,0,0,0,1.147-2.476,16.384,16.384,0,0,0-.845-4.449,27.578,27.578,0,0,1-.917-4.258,12.053,12.053,0,0,1,.026-3.53A7.5,7.5,0,0,1,122.3,487.9a7.784,7.784,0,0,1,2.241-2.228,7.276,7.276,0,0,1,3.132-1.23,6.694,6.694,0,0,1,3.155.364,9.71,9.71,0,0,1,3.034,1.835,15.5,15.5,0,0,1,2.752,3.213,16.227,16.227,0,0,1,1.33,2.456,13.746,13.746,0,0,1,.849,2.631,11.65,11.65,0,0,1,.252,2.658,8.764,8.764,0,0,1-.436,2.559,8,8,0,0,1-1.235,2.34,8.577,8.577,0,0,1-2.136,1.983l-3.2-4.853a5.251,5.251,0,0,0,1.569-1.54,3.765,3.765,0,0,0,.57-1.742,4.742,4.742,0,0,0-.3-1.9,9.611,9.611,0,0,0-1.045-2.046,7.1,7.1,0,0,0-1.275-1.494,4.065,4.065,0,0,0-1.307-.773,2.61,2.61,0,0,0-1.278-.106A3.052,3.052,0,0,0,127.78,490.506Z" transform="translate(-70.321 -102.894)" fill="#161616"/>
        <path id="Path_18769" data-name="Path 18769" d="M122.026,455.874a13.535,13.535,0,0,0-.259-3.719,7.457,7.457,0,0,0-1.183-2.711,5.935,5.935,0,0,0-2.041-1.775,8.818,8.818,0,0,0-2.877-.892,7.815,7.815,0,0,1,1.435,2.39,6.917,6.917,0,0,1,.433,2.826,8.226,8.226,0,0,1-.9,3.491,7.331,7.331,0,0,1-2.1,2.479,8.514,8.514,0,0,1-3.054,1.422,12.468,12.468,0,0,1-3.755.341,11.006,11.006,0,0,1-3.794-.866,9.494,9.494,0,0,1-3.034-2.059,8.9,8.9,0,0,1-1.976-3.091,9.42,9.42,0,0,1-.59-3.957,9.27,9.27,0,0,1,1.025-3.894,8.512,8.512,0,0,1,2.477-2.886,10.709,10.709,0,0,1,3.692-1.729,15.21,15.21,0,0,1,4.682-.436l1.936.1a20.65,20.65,0,0,1,6.2,1.216,13.009,13.009,0,0,1,4.675,2.929,12.012,12.012,0,0,1,2.87,4.641,16.7,16.7,0,0,1,.767,6.36l-.023.446-4.62-.241Zm-8.659-5.477a3.945,3.945,0,0,0-.57-2.363,4.609,4.609,0,0,0-1.592-1.567l-2.28-.119a10.01,10.01,0,0,0-2.624.165,5.512,5.512,0,0,0-1.894.744,3.6,3.6,0,0,0-1.166,1.207,3.428,3.428,0,0,0-.442,1.56,3.023,3.023,0,0,0,.364,1.669,4.085,4.085,0,0,0,1.137,1.269,5.861,5.861,0,0,0,1.668.836,7.983,7.983,0,0,0,1.982.35,7.613,7.613,0,0,0,2.025-.145,5.369,5.369,0,0,0,1.7-.658,3.617,3.617,0,0,0,1.2-1.187A3.685,3.685,0,0,0,113.367,450.4Z" transform="translate(-98.314 -203.435)" fill="#161616"/>
        <path id="Path_18770" data-name="Path 18770" d="M104.7,433.5l22.99,14.455-.855,5.841L105.21,439.526l-2.031,13.87-4.446-.665,2.886-19.695Z" transform="translate(-97.359 -221.295)" fill="#161616"/>
        <path id="Path_18771" data-name="Path 18771" d="M110.5,426.711a6.46,6.46,0,0,1,3.26,1.871,7.43,7.43,0,0,1,1.769,3.355,8.075,8.075,0,0,1,3.394-2.5,6.87,6.87,0,0,1,4.207-.188,8.086,8.086,0,0,1,3.221,1.544,7.207,7.207,0,0,1,1.969,2.539,8.632,8.632,0,0,1,.76,3.3,14.316,14.316,0,0,1-1.809,7.358,8.6,8.6,0,0,1-2.2,2.572,7.1,7.1,0,0,1-2.923,1.335,7.9,7.9,0,0,1-3.565-.142,6.949,6.949,0,0,1-3.643-2.145,8.093,8.093,0,0,1-1.838-3.795,7.235,7.235,0,0,1-3.113,2.126,6.506,6.506,0,0,1-3.745.112,7.914,7.914,0,0,1-3.093-1.464,7.012,7.012,0,0,1-1.936-2.387,8.055,8.055,0,0,1-.79-3.1,12.135,12.135,0,0,1,.36-3.606,12.006,12.006,0,0,1,1.353-3.365,7.957,7.957,0,0,1,2.136-2.38,6.858,6.858,0,0,1,2.814-1.2A8.009,8.009,0,0,1,110.5,426.711Zm-1.071,5.5a3.814,3.814,0,0,0-2.752.212,3.091,3.091,0,0,0-1.543,2.149,3.145,3.145,0,0,0,.347,2.6,3.819,3.819,0,0,0,2.366,1.488,3.964,3.964,0,0,0,2.814-.2,3.462,3.462,0,0,0,1.173-4.763A4.047,4.047,0,0,0,109.424,432.208ZM121.4,434.6a4.753,4.753,0,0,0-1.687-.132,3.631,3.631,0,0,0-1.422.463,3.5,3.5,0,0,0-1.068,1.012,4.474,4.474,0,0,0-.655,1.5,4.36,4.36,0,0,0-.111,1.626,3.515,3.515,0,0,0,.478,1.388,3.564,3.564,0,0,0,1.042,1.078,4.865,4.865,0,0,0,1.553.678,4.643,4.643,0,0,0,1.681.129,3.5,3.5,0,0,0,1.409-.463,3.339,3.339,0,0,0,1.058-1.015,4.6,4.6,0,0,0,.652-1.524,3.835,3.835,0,0,0-.344-3.028A4.005,4.005,0,0,0,121.4,434.6Z" transform="translate(-93.552 -236.538)" fill="#161616"/>
        <path id="Path_18772" data-name="Path 18772" d="M123.9,423.217l-4.1,10.356,6.952,2.806,4.816-12.161,4.3,1.735L128.9,443.507l-25.955-10.466,6.939-17.519,4.335,1.749-4.8,12.122,6.189,2.5,4.1-10.36Z" transform="translate(-87.764 -261.677)" fill="#161616"/>
        <path id="Path_18773" data-name="Path 18773" d="M130.164,418.608l-4.7,9.018,4.207,4.416-2.847,5.474-19.91-22.409,2.483-4.767,29.612,3.765-2.847,5.474Zm-8.1,5.441,3.25-6.241-10.9-1.772Z" transform="translate(-78.727 -273.622)" fill="#161616"/>
        <path id="Path_18774" data-name="Path 18774" d="M125.689,404.132l-4.7,7.219,19.462,12.9-3.162,4.856L117.822,416.2l-4.636,7.124-3.9-2.585,12.506-19.2Z" transform="translate(-73.341 -293.898)" fill="#161616"/>
        <path id="Path_18775" data-name="Path 18775" d="M137.118,410.791a3.9,3.9,0,0,0-1.157-.671,2.536,2.536,0,0,0-1.356-.053,7.645,7.645,0,0,0-1.815.684,26.936,26.936,0,0,0-2.523,1.507,33.83,33.83,0,0,1-3.358,1.957,13.39,13.39,0,0,1-3.286,1.177,8.041,8.041,0,0,1-3.139.043,6.588,6.588,0,0,1-2.939-1.448,6.866,6.866,0,0,1-2-2.628,7.336,7.336,0,0,1-.57-3.24,10.549,10.549,0,0,1,.829-3.563,14.667,14.667,0,0,1,2.182-3.613,13.059,13.059,0,0,1,3.165-2.9,9.59,9.59,0,0,1,3.437-1.4,7.845,7.845,0,0,1,3.43.116,8.16,8.16,0,0,1,3.149,1.633l-3.63,4.509a4.639,4.639,0,0,0-1.445-.82,3.275,3.275,0,0,0-1.533-.152,4.016,4.016,0,0,0-1.56.6,6.365,6.365,0,0,0-1.514,1.4,6.906,6.906,0,0,0-1.045,1.7,3.986,3.986,0,0,0-.337,1.524,2.948,2.948,0,0,0,1.091,2.33,2.718,2.718,0,0,0,2.687.37,16.09,16.09,0,0,0,3.958-2.135,27.548,27.548,0,0,1,3.758-2.149,11.921,11.921,0,0,1,3.348-1.025,7.376,7.376,0,0,1,3.011.192,7.592,7.592,0,0,1,2.775,1.5,7.337,7.337,0,0,1,2.1,2.651,6.9,6.9,0,0,1,.593,3.147,9.848,9.848,0,0,1-.839,3.468,15.556,15.556,0,0,1-2.225,3.606,16.124,16.124,0,0,1-1.93,2.01,13.172,13.172,0,0,1-2.241,1.6,11.3,11.3,0,0,1-2.438,1.031,8.469,8.469,0,0,1-2.549.341,7.815,7.815,0,0,1-2.582-.493,8.629,8.629,0,0,1-2.513-1.474l3.647-4.522a5.132,5.132,0,0,0,1.92,1.051,3.652,3.652,0,0,0,1.818.033,4.677,4.677,0,0,0,1.717-.856,9.452,9.452,0,0,0,1.622-1.613,7.151,7.151,0,0,0,1.035-1.669,4.114,4.114,0,0,0,.347-1.491,2.667,2.667,0,0,0-.282-1.263A3.124,3.124,0,0,0,137.118,410.791Z" transform="translate(-60.41 -305.502)" fill="#161616"/>
      </g>
    </g>
  </g>
</svg>
